<svg width="311" height="142" viewBox="0 0 311 142" fill="none" xmlns="http://www.w3.org/2000/svg">
<path fill-rule="evenodd" clip-rule="evenodd" d="M295.459 7.84496L301.371 13.2345L256.867 62.0551L256.819 62.1115C256.754 62.1889 256.658 62.3032 256.532 62.452C256.28 62.7497 255.912 63.1855 255.44 63.7407C254.497 64.8509 253.142 66.4388 251.492 68.3528C248.196 72.179 243.715 77.3169 238.991 82.552C234.274 87.7782 229.279 93.1413 224.959 97.4005C222.803 99.5267 220.77 101.422 218.997 102.902C217.349 104.277 215.538 105.629 213.903 106.258C213.267 106.502 212.571 106.576 212.333 106.602L212.302 106.605C211.908 106.647 211.435 106.682 210.919 106.712C209.877 106.771 208.484 106.82 206.814 106.861C203.466 106.942 198.874 106.993 193.48 107.02C182.685 107.075 168.589 107.039 154.602 106.965C140.612 106.892 126.719 106.781 116.324 106.69C111.127 106.644 106.803 106.602 103.779 106.572C102.267 106.558 101.08 106.546 100.27 106.537L99.1091 106.525L99.0714 106.524L99.0491 106.524L99.0301 106.524L8.21897 106.524L8.21898 98.5245L99.0927 98.5245L99.114 98.5247L99.0714 102.524C99.114 98.5247 99.1152 98.5247 99.1152 98.5247L100.352 98.5376C101.161 98.5459 102.347 98.558 103.858 98.5729C106.88 98.6027 111.201 98.644 116.395 98.6899C126.784 98.7817 140.667 98.8918 154.644 98.9652C168.624 99.0387 182.686 99.0753 193.439 99.0203C198.819 98.9928 203.349 98.9425 206.62 98.8631C208.26 98.8233 209.551 98.7769 210.461 98.7247C210.81 98.7047 211.078 98.6852 211.276 98.6674C211.281 98.6644 211.287 98.6612 211.293 98.6581C211.458 98.5651 211.67 98.4336 211.931 98.2549C212.458 97.8949 213.106 97.3983 213.872 96.7591C215.404 95.4803 217.261 93.7563 219.342 91.704C223.498 87.606 228.374 82.3759 233.052 77.1922C237.722 72.0174 242.159 66.9286 245.432 63.1307C247.067 61.2326 248.41 59.659 249.343 58.5608C249.81 58.0117 250.174 57.5816 250.421 57.2894C250.544 57.1432 250.638 57.0316 250.701 56.9568L250.795 56.8454C250.795 56.8454 250.795 56.8451 253.857 59.4188L250.795 56.8454L250.847 56.7835L295.459 7.84496ZM211.617 98.628C211.617 98.628 211.601 98.6315 211.562 98.6368C211.596 98.6303 211.617 98.628 211.617 98.628Z" fill="#44B85C"/>
<circle cx="296" cy="11" r="11" fill="#44B85C"/>
<circle cx="296" cy="11" r="6" fill="white"/>
</svg>
