<svg width="383" height="2902" viewBox="0 0 383 2902" fill="none" xmlns="http://www.w3.org/2000/svg">
<path d="M360 16H368V830H360V16Z" fill="#ED1832"/>
<path fill-rule="evenodd" clip-rule="evenodd" d="M363.459 828.845L369.371 834.234L324.867 883.055L324.819 883.112C324.754 883.189 324.658 883.303 324.532 883.452C324.28 883.75 323.912 884.186 323.44 884.741C322.497 885.851 321.142 887.439 319.492 889.353C316.196 893.179 311.715 898.317 306.991 903.552C302.274 908.778 297.279 914.141 292.959 918.4C290.803 920.527 288.77 922.422 286.997 923.902C285.349 925.277 283.538 926.629 281.903 927.258C281.267 927.502 280.571 927.576 280.333 927.602L280.302 927.605C279.908 927.647 279.435 927.682 278.919 927.712C277.877 927.771 276.484 927.82 274.814 927.861C271.466 927.942 266.874 927.993 261.48 928.02C250.685 928.075 236.589 928.039 222.602 927.965C208.612 927.892 194.719 927.781 184.324 927.69C179.127 927.644 174.803 927.602 171.779 927.572C170.267 927.558 169.08 927.546 168.27 927.537L167.109 927.525L167.071 927.524L167.049 927.524L167.03 927.524L76.219 927.524L76.219 919.524L167.093 919.524L167.114 919.525L167.071 923.524C167.114 919.525 167.115 919.525 167.115 919.525L168.352 919.538C169.161 919.546 170.347 919.558 171.858 919.573C174.88 919.603 179.201 919.644 184.395 919.69C194.784 919.782 208.667 919.892 222.644 919.965C236.624 920.039 250.686 920.075 261.439 920.02C266.819 919.993 271.349 919.942 274.62 919.863C276.26 919.823 277.551 919.777 278.461 919.725C278.81 919.705 279.078 919.685 279.276 919.667C279.281 919.664 279.287 919.661 279.293 919.658C279.458 919.565 279.67 919.434 279.931 919.255C280.458 918.895 281.106 918.398 281.872 917.759C283.404 916.48 285.261 914.756 287.342 912.704C291.498 908.606 296.374 903.376 301.052 898.192C305.722 893.017 310.159 887.929 313.432 884.131C315.067 882.233 316.41 880.659 317.343 879.561C317.81 879.012 318.174 878.582 318.421 878.289C318.544 878.143 318.638 878.032 318.701 877.957L318.795 877.845C318.795 877.845 318.795 877.845 321.857 880.419L318.795 877.845L318.847 877.784L363.459 828.845ZM279.617 919.628C279.617 919.628 279.601 919.632 279.562 919.637C279.596 919.63 279.617 919.628 279.617 919.628Z" fill="#44B85C"/>
<circle cx="364" cy="832" r="11" fill="#44B85C"/>
<circle cx="364" cy="832" r="6" fill="white"/>
<circle cx="73.7466" cy="923" r="11" fill="#0078BF"/>
<path d="M74 929C74 929 73.9999 1519.43 74.0001 1562.29C74.0002 1605.14 98.4568 1640.85 126.907 1641.65C155.356 1642.44 357 1641.65 357 1641.65" stroke="#0078BF" stroke-width="9"/>
<circle cx="73.7466" cy="923" r="6" fill="white"/>
<rect x="77" y="1234" width="22" height="10" fill="#0078BF"/>
<rect x="76" y="1328" width="22" height="10" fill="#0078BF"/>
<rect x="77" y="1450" width="22" height="10" fill="#0078BF"/>
<rect x="77" y="1094" width="22" height="10" fill="#0078BF"/>
<rect x="77" y="1018" width="22" height="10" fill="#0078BF"/>
<path fill-rule="evenodd" clip-rule="evenodd" d="M74.8428 2536.74L72.9408 2549.93L318.946 2303.93L319.271 2303.65C319.569 2303.4 320.005 2303.03 320.561 2302.56C321.671 2301.62 323.26 2300.26 325.175 2298.62C329.003 2295.32 334.143 2290.84 339.381 2286.12C344.61 2281.41 349.976 2276.42 354.237 2272.1C356.365 2269.94 358.261 2267.91 359.742 2266.14C361.117 2264.49 362.471 2262.68 363.101 2261.05C363.345 2260.41 363.42 2259.72 363.445 2259.48L363.448 2259.45C363.491 2259.05 363.526 2258.58 363.556 2258.06C363.616 2257.02 363.666 2255.63 363.707 2253.96C363.79 2250.61 363.844 2246.02 363.874 2240.63C363.935 2229.83 363.906 2215.73 363.84 2201.75C363.774 2187.76 363.672 2173.86 363.586 2163.47C363.543 2158.27 363.504 2153.95 363.475 2150.92C363.461 2149.41 363.45 2148.23 363.442 2147.42L363.431 2146.25L363.43 2146.22L363.43 2146.19L363.43 2146.18L363.43 2146.18L363.48 1644H355.48L355.43 2146.23L355.43 2146.26L359.43 2146.21C355.43 2146.26 355.43 2146.26 355.43 2146.26L355.43 2146.26L355.442 2147.49C355.45 2148.3 355.462 2149.49 355.476 2151C355.504 2154.02 355.543 2158.34 355.586 2163.54C355.672 2173.93 355.775 2187.81 355.84 2201.79C355.906 2215.77 355.935 2229.83 355.874 2240.58C355.844 2245.96 355.791 2250.49 355.71 2253.76C355.669 2255.4 355.622 2256.69 355.569 2257.6C355.549 2257.95 355.529 2258.22 355.512 2258.42C355.508 2258.42 355.505 2258.43 355.502 2258.43C355.409 2258.6 355.277 2258.81 355.099 2259.07C354.738 2259.6 354.241 2260.25 353.602 2261.01C352.322 2262.54 350.597 2264.4 348.544 2266.48C344.443 2270.63 339.211 2275.51 334.024 2280.18C328.847 2284.85 323.756 2289.28 319.956 2292.55C318.057 2294.19 316.483 2295.53 315.384 2296.46C315.005 2296.78 314.682 2297.06 314.423 2297.28C314.306 2297.37 314.202 2297.46 314.112 2297.54C314.013 2297.62 313.735 2297.86 313.669 2297.91L313.668 2297.91C313.668 2297.91 314.472 2299.04 317.044 2302.1L313.668 2297.91L313.534 2298.03L74.8428 2536.74ZM355.472 2258.76C355.472 2258.76 355.476 2258.74 355.481 2258.7C355.474 2258.74 355.472 2258.76 355.472 2258.76Z" fill="#19C1F3"/>
<path fill-rule="evenodd" clip-rule="evenodd" d="M74.5711 2548.92C74.5711 2548.92 74.5673 2548.94 74.562 2548.97C74.569 2548.94 74.5711 2548.92 74.5711 2548.92Z" fill="#19C1F3"/>
<path fill-rule="evenodd" clip-rule="evenodd" d="M74.5711 2548.92C74.5711 2548.92 74.5673 2548.94 74.562 2548.97C74.569 2548.94 74.5711 2548.92 74.5711 2548.92Z" fill="#19C1F3"/>
<path fill-rule="evenodd" clip-rule="evenodd" d="M76.1684 2546.99C77.2554 2545.69 78.7118 2544.15 80.4498 2542.44L74.8428 2536.74C73.0084 2538.54 71.3494 2540.28 70.0294 2541.86C68.7844 2543.35 67.5682 2545.01 66.9477 2546.61C66.7014 2547.25 66.6257 2547.94 66.5996 2548.18L66.5963 2548.21C66.5525 2548.6 66.5166 2549.08 66.4855 2549.59C66.4229 2550.63 66.37 2552.03 66.3248 2553.7C66.234 2557.05 66.1703 2561.64 66.1274 2567.03C66.0416 2577.83 66.0385 2591.92 66.0723 2605.91C66.1061 2619.9 66.1769 2633.79 66.2392 2644.19C66.2704 2649.39 66.2995 2653.71 66.3208 2656.73C66.3314 2658.25 66.3401 2659.43 66.3461 2660.24L66.3423 2670H70.2467H74.3523L74.3552 2661.42L74.3459 2660.18C74.3399 2659.37 74.3312 2658.19 74.3206 2656.68C74.2993 2653.65 74.2703 2649.33 74.2391 2644.14C74.1768 2633.75 74.106 2619.87 74.0723 2605.89C74.0385 2591.91 74.0417 2577.85 74.1272 2567.09C74.17 2561.71 74.2331 2557.18 74.3218 2553.91C74.3663 2552.27 74.4163 2550.98 74.4711 2550.07C74.4926 2549.72 74.5135 2549.44 74.5322 2549.24C74.7575 2548.83 75.2511 2548.09 76.1684 2546.99ZM74.5711 2548.92C74.5711 2548.92 74.5673 2548.94 74.562 2548.97C74.569 2548.94 74.5711 2548.92 74.5711 2548.92Z" fill="#19C1F3"/>
<g filter="url(#filter0_b)">
<path d="M90.5319 2549.49C68.0219 2538.58 40.9317 2547.99 30.0243 2570.5C19.117 2593.01 28.5229 2620.1 51.0329 2631.01C73.543 2641.91 100.633 2632.51 111.541 2610C122.448 2587.49 113.042 2560.4 90.5319 2549.49Z" stroke="url(#paint0_radial)" stroke-width="12"/>
</g>
<g filter="url(#filter1_b)">
<path d="M90.75 2549.04C67.9914 2538.01 40.6021 2547.52 29.5744 2570.28C18.5466 2593.04 28.0563 2620.43 50.8149 2631.46C73.5735 2642.48 100.963 2632.97 111.991 2610.22C123.018 2587.46 113.509 2560.07 90.75 2549.04Z" stroke="url(#paint1_radial)" stroke-width="11"/>
</g>
<g filter="url(#filter2_b)">
<path d="M90.5319 2549.49C68.0219 2538.58 40.9317 2547.99 30.0243 2570.5C19.117 2593.01 28.5229 2620.1 51.0329 2631.01C73.543 2641.91 100.633 2632.51 111.541 2610C122.448 2587.49 113.042 2560.4 90.5319 2549.49Z" stroke="url(#paint2_radial)" stroke-width="12"/>
</g>
<g filter="url(#filter3_b)">
<path d="M90.5319 2549.49C68.0219 2538.58 40.9317 2547.99 30.0243 2570.5C19.117 2593.01 28.5229 2620.1 51.0329 2631.01C73.543 2641.91 100.633 2632.51 111.541 2610C122.448 2587.49 113.042 2560.4 90.5319 2549.49Z" stroke="url(#paint3_radial)" stroke-width="12"/>
</g>
<path d="M118.185 2588.46C94.2309 2599.19 73.1194 2590.54 73.1194 2590.54" stroke="url(#paint4_linear)" stroke-width="13"/>
<path d="M117.481 2588.37C93.5278 2599.1 72.4162 2590.44 72.4162 2590.44" stroke="white" stroke-width="4"/>
<path d="M70.4888 2590.03C44.35 2568.43 51.8343 2547.1 51.8343 2547.1" stroke="url(#paint5_linear)" stroke-width="13"/>
<path d="M90.4546 2548.46C67.759 2537.46 40.4455 2546.95 29.4482 2569.64C18.451 2592.34 27.9344 2619.65 50.63 2630.65C73.3257 2641.65 100.639 2632.16 111.636 2609.47C122.634 2586.77 113.15 2559.46 90.4546 2548.46Z" stroke="white" stroke-width="4"/>
<path d="M71.2456 2590.48C45.1068 2568.89 52.5911 2547.56 52.5911 2547.56" stroke="white" stroke-width="4"/>
<circle cx="115.494" cy="2589.46" r="11.398" transform="rotate(-64.1473 115.494 2589.46)" fill="#EF354C"/>
<circle cx="51.5033" cy="2550.62" r="11.398" transform="rotate(-64.1473 51.5033 2550.62)" fill="#0078BF"/>
<circle cx="71.475" cy="2590.01" r="11.398" transform="rotate(-64.1473 71.475 2590.01)" fill="#19C1F3"/>
<circle cx="48.7968" cy="2629.68" r="11.398" transform="rotate(-64.1473 48.7968 2629.68)" fill="#DEDEE0"/>
<circle cx="115.494" cy="2589.46" r="6.21708" transform="rotate(-64.1473 115.494 2589.46)" fill="white"/>
<circle cx="51.5031" cy="2550.62" r="6.21708" transform="rotate(-64.1473 51.5031 2550.62)" fill="white"/>
<circle cx="71.4748" cy="2590.01" r="6.21708" transform="rotate(-64.1473 71.4748 2590.01)" fill="white"/>
<circle cx="48.7966" cy="2629.68" r="6.21708" transform="rotate(-64.1473 48.7966 2629.68)" fill="white"/>
<path d="M69.5522 2669.5C142.552 2669.5 189.552 2669.5 283.552 2669.5C353.052 2669.5 359.742 2704.09 363.552 2732.5" stroke="#894E35" stroke-width="9"/>
<path d="M364 2732C364 2766 359 2808.5 301.5 2808.5C260.133 2808.5 199 2808.5 136.5 2808.5C74 2808.5 75.4997 2832 75.4997 2840" stroke="#F58631" stroke-width="9"/>
<circle cx="358" cy="1642" r="11" fill="#19C1F3"/>
<circle cx="358" cy="1642" r="6" fill="white"/>
<circle cx="72" cy="2667" r="11" fill="#894E35"/>
<circle cx="72" cy="2667" r="6" fill="white"/>
<circle cx="364" cy="2732" r="11" fill="#F58631"/>
<circle cx="364" cy="2732" r="6" fill="white"/>
<path d="M79.7124 2850.82C79.7494 2848.11 79.8065 2845.82 79.889 2844.18V2842.35L72.3861 2842C72.3269 2842.53 72.2773 2843.23 72.2352 2844.07C72.1508 2845.76 72.0932 2848.07 72.0562 2850.79C71.982 2856.24 71.9893 2863.34 72.0319 2870.39C72.0746 2877.45 72.1525 2884.45 72.2199 2889.69C72.2535 2892.32 72.2845 2894.5 72.3071 2896.02C72.3184 2896.78 72.3276 2897.38 72.3339 2897.79L72.3432 2898.37L72.3437 2898.4L72.3437 2898.41L72.3071 2902H74.8712H79.8761L80 2898.38L80 2898.38L79.9901 2897.76C79.9838 2897.35 79.9746 2896.75 79.9633 2895.99C79.9407 2894.47 79.8761 2889.67 79.8761 2889.67C79.8761 2889.67 79.7309 2877.43 79.6883 2870.38C79.6457 2863.33 79.6385 2856.24 79.7124 2850.82Z" fill="#8E479C"/>
<circle cx="76" cy="2837" r="11" fill="#8E479C"/>
<circle cx="76" cy="2837" r="6" fill="white"/>
<path d="M79.7124 2851.67C79.7494 2849.01 79.8065 2846.76 79.889 2845.14V2843.35L72.3861 2843C72.3269 2843.52 72.2773 2844.21 72.2352 2845.03C72.1508 2846.69 72.0932 2848.97 72.0562 2851.65C71.982 2857 71.9893 2863.99 72.0319 2870.92C72.0746 2877.86 72.1525 2884.75 72.2199 2889.9C72.2535 2892.48 72.2845 2894.62 72.3071 2896.12C72.3184 2896.87 72.3276 2897.46 72.3339 2897.86L72.3432 2898.44L72.3437 2898.46L72.3437 2898.47L72.3071 2902H74.8712H79.8761L80 2898.44L80 2898.44L79.9901 2897.83C79.9838 2897.43 79.9746 2896.84 79.9633 2896.09C79.9407 2894.59 79.8761 2889.87 79.8761 2889.87C79.8761 2889.87 79.7309 2877.84 79.6883 2870.91C79.6457 2863.98 79.6385 2857.01 79.7124 2851.67Z" fill="#8E479C"/>
<circle cx="364" cy="11" r="11" fill="#ED1832"/>
<circle cx="364" cy="11" r="6" fill="white"/>
<defs>
<filter id="filter0_b" x="-1.74121" y="2517.72" width="145.047" height="145.047" filterUnits="userSpaceOnUse" color-interpolation-filters="sRGB">
<feFlood flood-opacity="0" result="BackgroundImageFix"/>
<feGaussianBlur in="BackgroundImage" stdDeviation="2"/>
<feComposite in2="SourceAlpha" operator="in" result="effect1_backgroundBlur"/>
<feBlend mode="normal" in="SourceGraphic" in2="effect1_backgroundBlur" result="shape"/>
</filter>
<filter id="filter1_b" x="-1.74121" y="2517.72" width="145.047" height="145.047" filterUnits="userSpaceOnUse" color-interpolation-filters="sRGB">
<feFlood flood-opacity="0" result="BackgroundImageFix"/>
<feGaussianBlur in="BackgroundImage" stdDeviation="2"/>
<feComposite in2="SourceAlpha" operator="in" result="effect1_backgroundBlur"/>
<feBlend mode="normal" in="SourceGraphic" in2="effect1_backgroundBlur" result="shape"/>
</filter>
<filter id="filter2_b" x="-1.74121" y="2517.72" width="145.047" height="145.047" filterUnits="userSpaceOnUse" color-interpolation-filters="sRGB">
<feFlood flood-opacity="0" result="BackgroundImageFix"/>
<feGaussianBlur in="BackgroundImage" stdDeviation="2"/>
<feComposite in2="SourceAlpha" operator="in" result="effect1_backgroundBlur"/>
<feBlend mode="normal" in="SourceGraphic" in2="effect1_backgroundBlur" result="shape"/>
</filter>
<filter id="filter3_b" x="-1.74121" y="2517.72" width="145.047" height="145.047" filterUnits="userSpaceOnUse" color-interpolation-filters="sRGB">
<feFlood flood-opacity="0" result="BackgroundImageFix"/>
<feGaussianBlur in="BackgroundImage" stdDeviation="2"/>
<feComposite in2="SourceAlpha" operator="in" result="effect1_backgroundBlur"/>
<feBlend mode="normal" in="SourceGraphic" in2="effect1_backgroundBlur" result="shape"/>
</filter>
<radialGradient id="paint0_radial" cx="0" cy="0" r="1" gradientUnits="userSpaceOnUse" gradientTransform="translate(50.7539 2544.85) rotate(93.2581) scale(90.3469 102.156)">
<stop stop-color="#0078BF"/>
<stop offset="0.96875" stop-color="#A1A2A3"/>
</radialGradient>
<radialGradient id="paint1_radial" cx="0" cy="0" r="1" gradientUnits="userSpaceOnUse" gradientTransform="translate(55.9932 2537.6) rotate(96.0766) scale(97.9998 64.6742)">
<stop offset="0.348495" stop-color="#0078BF"/>
<stop offset="0.96875" stop-color="#A1A2A3" stop-opacity="0"/>
</radialGradient>
<radialGradient id="paint2_radial" cx="0" cy="0" r="1" gradientUnits="userSpaceOnUse" gradientTransform="translate(118.94 2587.1) rotate(176.828) scale(97.1705 64.1269)">
<stop offset="0.348495" stop-color="#ED1B35"/>
<stop offset="0.96875" stop-color="#A1A2A3" stop-opacity="0"/>
</radialGradient>
<radialGradient id="paint3_radial" cx="0" cy="0" r="1" gradientUnits="userSpaceOnUse" gradientTransform="translate(46.9747 2632.25) rotate(-61.992) scale(96.433 63.6401)">
<stop offset="0.546114" stop-color="#DEDEE0"/>
<stop offset="0.96875" stop-color="#A1A2A3" stop-opacity="0"/>
</radialGradient>
<linearGradient id="paint4_linear" x1="118.954" y1="2588.26" x2="80.0784" y2="2592.45" gradientUnits="userSpaceOnUse">
<stop offset="0.25" stop-color="#ED1B35"/>
<stop offset="0.848958" stop-color="#19C1F3"/>
</linearGradient>
<linearGradient id="paint5_linear" x1="65.6109" y1="2584.29" x2="55.6602" y2="2557.43" gradientUnits="userSpaceOnUse">
<stop stop-color="#19C1F3"/>
<stop offset="1" stop-color="#0078BF"/>
</linearGradient>
</defs>
</svg>
