<svg width="277" height="240" viewBox="0 0 277 240" fill="none" xmlns="http://www.w3.org/2000/svg">
<rect x="22" y="45" width="175" height="73" fill="#ED1832"/>
<path d="M53.29 63.11H59.71L56.53 54.62H56.47L53.29 63.11ZM50.38 71H46.96L55.21 50H57.94L66.16 71H62.62L60.67 65.72H52.33L50.38 71ZM72.133 63.56C72.133 65.04 72.543 66.28 73.363 67.28C74.203 68.26 75.283 68.75 76.603 68.75C77.923 68.75 78.993 68.26 79.813 67.28C80.653 66.28 81.073 65.04 81.073 63.56C81.073 62.08 80.653 60.86 79.813 59.9C78.993 58.92 77.923 58.43 76.603 58.43C75.283 58.43 74.203 58.92 73.363 59.9C72.543 60.86 72.133 62.08 72.133 63.56ZM72.223 68.75V76.55H69.283V56.18H72.223V58.43H72.283C72.743 57.69 73.393 57.07 74.233 56.57C75.093 56.07 76.063 55.82 77.143 55.82C79.123 55.82 80.773 56.55 82.093 58.01C83.413 59.47 84.073 61.33 84.073 63.59C84.073 65.85 83.413 67.71 82.093 69.17C80.773 70.63 79.123 71.36 77.143 71.36C76.063 71.36 75.093 71.11 74.233 70.61C73.393 70.11 72.743 69.49 72.283 68.75H72.223ZM90.5392 71V58.61H86.0092V56.18H98.3692L97.4992 58.61H93.4792V71H90.5392ZM107.351 71.36C105.331 71.36 103.571 70.66 102.071 69.26C100.591 67.84 99.8514 65.96 99.8514 63.62C99.8514 61.32 100.551 59.45 101.951 58.01C103.351 56.55 105.031 55.82 106.991 55.82C108.911 55.82 110.581 56.5 112.001 57.86C113.421 59.2 114.131 61.29 114.131 64.13V64.55H102.911C103.071 65.87 103.601 66.9 104.501 67.64C105.421 68.36 106.461 68.72 107.621 68.72C108.261 68.72 108.901 68.61 109.541 68.39C110.201 68.15 110.821 67.78 111.401 67.28L113.261 69.14C112.521 69.86 111.631 70.41 110.591 70.79C109.571 71.17 108.491 71.36 107.351 71.36ZM102.941 62.33H110.981C110.901 61.33 110.501 60.43 109.781 59.63C109.081 58.83 108.181 58.43 107.081 58.43C105.921 58.43 104.971 58.82 104.231 59.6C103.511 60.38 103.081 61.29 102.941 62.33ZM116.966 71L120.656 56.18H122.966L127.046 67.16H127.106L131.276 56.18H133.586L137.276 71H134.216L131.966 61.4H131.906L128.246 71H125.786L122.156 61.46H122.096L119.876 71H116.966ZM141.09 71V56.18H144.03V66.32H144.09L150.99 56.18H153.66V71H150.72V60.89H150.66L143.76 71H141.09ZM157.994 71V56.18H160.934V66.32H160.994L167.894 56.18H170.564V71H167.624V60.89H167.564L160.664 71H157.994ZM164.354 54.26C163.074 54.26 162.014 53.98 161.174 53.42C160.354 52.84 159.794 52.34 159.494 51.92L161.174 50.27C161.434 50.57 161.854 50.9 162.434 51.26C163.014 51.6 163.654 51.77 164.354 51.77C165.054 51.77 165.694 51.6 166.274 51.26C166.854 50.9 167.274 50.57 167.534 50.27L169.214 51.92C168.914 52.34 168.344 52.84 167.504 53.42C166.684 53.98 165.634 54.26 164.354 54.26ZM47.98 107.3C47.6 107.3 47.27 107.25 46.99 107.15C46.71 107.07 46.53 107.02 46.45 107V104.18C46.49 104.2 46.62 104.24 46.84 104.3C47.06 104.36 47.33 104.39 47.65 104.39C48.33 104.39 48.82 104 49.12 103.22C49.44 102.44 49.7 101.39 49.9 100.07C50.04 99.13 50.18 97.87 50.32 96.29C50.46 94.69 50.59 93.13 50.71 91.61C50.83 90.09 50.92 88.78 50.98 87.68C51.06 86.56 51.1 86 51.1 86H64.75V107H61.66V88.73H53.8C53.76 89.37 53.7 90.19 53.62 91.19C53.56 92.17 53.48 93.21 53.38 94.31C53.3 95.39 53.21 96.48 53.11 97.58C53.01 98.66 52.91 99.63 52.81 100.49C52.57 102.53 52.08 104.18 51.34 105.44C50.62 106.68 49.5 107.3 47.98 107.3ZM75.7987 107.36C73.7787 107.36 72.0187 106.66 70.5187 105.26C69.0387 103.84 68.2987 101.96 68.2987 99.62C68.2987 97.32 68.9987 95.45 70.3987 94.01C71.7987 92.55 73.4787 91.82 75.4387 91.82C77.3587 91.82 79.0287 92.5 80.4487 93.86C81.8687 95.2 82.5787 97.29 82.5787 100.13V100.55H71.3587C71.5187 101.87 72.0487 102.9 72.9487 103.64C73.8687 104.36 74.9087 104.72 76.0687 104.72C76.7087 104.72 77.3487 104.61 77.9887 104.39C78.6487 104.15 79.2687 103.78 79.8487 103.28L81.7087 105.14C80.9687 105.86 80.0787 106.41 79.0387 106.79C78.0187 107.17 76.9387 107.36 75.7987 107.36ZM71.3887 98.33H79.4287C79.3487 97.33 78.9487 96.43 78.2287 95.63C77.5287 94.83 76.6287 94.43 75.5287 94.43C74.3687 94.43 73.4187 94.82 72.6787 95.6C71.9587 96.38 71.5287 97.29 71.3887 98.33ZM92.9666 107.36C90.7666 107.36 88.9666 106.56 87.5666 104.96C86.1666 103.34 85.4666 101.13 85.4666 98.33V97.85C85.4666 96.21 85.5966 94.65 85.8566 93.17C86.1166 91.69 86.5866 90.39 87.2666 89.27C87.9666 88.15 88.9366 87.25 90.1766 86.57C91.4166 85.89 93.0166 85.52 94.9766 85.46C95.9166 85.44 96.7566 85.37 97.4966 85.25C98.2366 85.11 98.7466 84.94 99.0266 84.74V87.38C98.7466 87.58 98.2366 87.75 97.4966 87.89C96.7566 88.01 95.9166 88.08 94.9766 88.1C92.4566 88.18 90.7266 88.83 89.7866 90.05C88.8666 91.25 88.2866 92.86 88.0466 94.88H88.1066C88.6066 94.18 89.3266 93.59 90.2666 93.11C91.2066 92.61 92.2466 92.36 93.3866 92.36C95.2666 92.36 96.8966 93.04 98.2766 94.4C99.6566 95.74 100.347 97.53 100.347 99.77C100.347 102.03 99.6266 103.86 98.1866 105.26C96.7666 106.66 95.0266 107.36 92.9666 107.36ZM92.9366 104.84C94.1966 104.84 95.2466 104.38 96.0866 103.46C96.9266 102.54 97.3466 101.34 97.3466 99.86C97.3466 98.4 96.9266 97.21 96.0866 96.29C95.2466 95.37 94.1966 94.91 92.9366 94.91C91.6766 94.91 90.6266 95.37 89.7866 96.29C88.9466 97.21 88.5266 98.4 88.5266 99.86C88.5266 101.34 88.9466 102.54 89.7866 103.46C90.6266 104.38 91.6766 104.84 92.9366 104.84ZM110.603 107.36C108.583 107.36 106.823 106.66 105.323 105.26C103.843 103.84 103.103 101.96 103.103 99.62C103.103 97.32 103.803 95.45 105.203 94.01C106.603 92.55 108.283 91.82 110.243 91.82C112.163 91.82 113.833 92.5 115.253 93.86C116.673 95.2 117.383 97.29 117.383 100.13V100.55H106.163C106.323 101.87 106.853 102.9 107.753 103.64C108.673 104.36 109.713 104.72 110.873 104.72C111.513 104.72 112.153 104.61 112.793 104.39C113.453 104.15 114.073 103.78 114.653 103.28L116.513 105.14C115.773 105.86 114.883 106.41 113.843 106.79C112.823 107.17 111.743 107.36 110.603 107.36ZM106.193 98.33H114.233C114.153 97.33 113.753 96.43 113.033 95.63C112.333 94.83 111.433 94.43 110.333 94.43C109.173 94.43 108.223 94.82 107.483 95.6C106.763 96.38 106.333 97.29 106.193 98.33ZM123.481 104.51V104.57H129.691V94.61H125.311C125.251 95.29 125.181 96.12 125.101 97.1C125.021 98.06 124.911 99.07 124.771 100.13C124.671 101.05 124.511 101.88 124.291 102.62C124.071 103.34 123.801 103.97 123.481 104.51ZM119.161 110.42V104.57H120.241C120.741 104.23 121.131 103.64 121.411 102.8C121.691 101.96 121.901 100.95 122.041 99.77C122.341 97.51 122.541 95.68 122.641 94.28C122.741 92.88 122.791 92.18 122.791 92.18H132.631V104.57H134.581V110.42H131.911V107H121.831V110.42H119.161ZM143.709 107.36C141.689 107.36 139.929 106.66 138.429 105.26C136.949 103.84 136.209 101.96 136.209 99.62C136.209 97.32 136.909 95.45 138.309 94.01C139.709 92.55 141.389 91.82 143.349 91.82C145.269 91.82 146.939 92.5 148.359 93.86C149.779 95.2 150.489 97.29 150.489 100.13V100.55H139.269C139.429 101.87 139.959 102.9 140.859 103.64C141.779 104.36 142.819 104.72 143.979 104.72C144.619 104.72 145.259 104.61 145.899 104.39C146.559 104.15 147.179 103.78 147.759 103.28L149.619 105.14C148.879 105.86 147.989 106.41 146.949 106.79C145.929 107.17 144.849 107.36 143.709 107.36ZM139.299 98.33H147.339C147.259 97.33 146.859 96.43 146.139 95.63C145.439 94.83 144.539 94.43 143.439 94.43C142.279 94.43 141.329 94.82 140.589 95.6C139.869 96.38 139.439 97.29 139.299 98.33ZM160.307 107H154.127V92.18H160.427C161.807 92.18 162.897 92.55 163.697 93.29C164.497 94.03 164.897 94.91 164.897 95.93C164.897 96.61 164.717 97.24 164.357 97.82C164.017 98.38 163.537 98.81 162.917 99.11V99.17C163.757 99.43 164.417 99.88 164.897 100.52C165.397 101.16 165.647 101.86 165.647 102.62C165.647 103.98 165.127 105.05 164.087 105.83C163.047 106.61 161.787 107 160.307 107ZM157.097 98.15H159.797C160.357 98.15 160.857 97.99 161.297 97.67C161.737 97.33 161.957 96.88 161.957 96.32C161.957 95.76 161.737 95.32 161.297 95C160.857 94.68 160.357 94.52 159.797 94.52H157.097V98.15ZM157.097 104.66H159.827C160.627 104.66 161.287 104.49 161.807 104.15C162.327 103.79 162.587 103.27 162.587 102.59C162.587 101.91 162.327 101.4 161.807 101.06C161.287 100.7 160.627 100.52 159.827 100.52H157.097V104.66Z" fill="white"/>
<path d="M26.861 129.156C25.9857 129.156 25.223 128.853 24.573 128.246C23.9317 127.631 23.611 126.816 23.611 125.802C23.611 124.805 23.9143 123.995 24.521 123.371C25.1277 122.738 25.8557 122.422 26.705 122.422C27.537 122.422 28.2607 122.717 28.876 123.306C29.4913 123.887 29.799 124.792 29.799 126.023V126.205H24.937C25.0063 126.777 25.236 127.223 25.626 127.544C26.0247 127.856 26.4753 128.012 26.978 128.012C27.2553 128.012 27.5327 127.964 27.81 127.869C28.096 127.765 28.3647 127.605 28.616 127.388L29.422 128.194C29.1013 128.506 28.7157 128.744 28.265 128.909C27.823 129.074 27.355 129.156 26.861 129.156ZM24.95 125.243H28.434C28.3993 124.81 28.226 124.42 27.914 124.073C27.6107 123.726 27.2207 123.553 26.744 123.553C26.2413 123.553 25.8297 123.722 25.509 124.06C25.197 124.398 25.0107 124.792 24.95 125.243ZM34.2225 129.156C33.3298 129.156 32.5758 128.84 31.9605 128.207C31.3538 127.574 31.0505 126.768 31.0505 125.789C31.0505 124.81 31.3538 124.004 31.9605 123.371C32.5758 122.738 33.3298 122.422 34.2225 122.422C34.7165 122.422 35.1541 122.513 35.5355 122.695C35.9255 122.868 36.2418 123.076 36.4845 123.319L35.6915 124.112C35.5441 123.973 35.3491 123.843 35.1065 123.722C34.8725 123.601 34.5865 123.54 34.2485 123.54C33.6765 123.54 33.2128 123.757 32.8575 124.19C32.5021 124.623 32.3245 125.156 32.3245 125.789C32.3245 126.43 32.5021 126.968 32.8575 127.401C33.2128 127.834 33.6765 128.051 34.2485 128.051C34.5865 128.051 34.8725 127.99 35.1065 127.869C35.3491 127.739 35.5441 127.605 35.6915 127.466L36.4845 128.259C36.2418 128.502 35.9255 128.714 35.5355 128.896C35.1541 129.069 34.7165 129.156 34.2225 129.156ZM37.6693 129.13C37.5393 129.13 37.4093 129.113 37.2793 129.078C37.1579 129.043 37.0843 129.022 37.0583 129.013V127.908C37.0756 127.917 37.1146 127.93 37.1753 127.947C37.2359 127.964 37.3053 127.973 37.3833 127.973C37.6779 127.973 37.8859 127.813 38.0073 127.492C38.1373 127.171 38.2283 126.686 38.2803 126.036C38.3149 125.594 38.3453 125.165 38.3713 124.749C38.4059 124.324 38.4319 123.956 38.4493 123.644C38.4666 123.323 38.4796 123.068 38.4883 122.877C38.5056 122.678 38.5143 122.578 38.5143 122.578H42.8563V129H41.5693V123.631H39.6453C39.6366 123.943 39.6193 124.32 39.5933 124.762C39.5673 125.204 39.5369 125.642 39.5023 126.075C39.4329 127.054 39.2596 127.808 38.9823 128.337C38.7049 128.866 38.2673 129.13 37.6693 129.13ZM44.7309 129V122.578H46.0049V126.972H46.0309L49.0209 122.578H50.1779V129H48.9039V124.619H48.8779L45.8879 129H44.7309ZM55.1157 129V122.578H59.3147L58.9377 123.631H56.3897V129H55.1157ZM63.0668 129.156C62.1828 129.156 61.4288 128.84 60.8048 128.207C60.1808 127.574 59.8688 126.768 59.8688 125.789C59.8688 124.81 60.1808 124.004 60.8048 123.371C61.4288 122.738 62.1828 122.422 63.0668 122.422C63.9508 122.422 64.7048 122.738 65.3288 123.371C65.9528 124.004 66.2648 124.81 66.2648 125.789C66.2648 126.768 65.9528 127.574 65.3288 128.207C64.7048 128.84 63.9508 129.156 63.0668 129.156ZM63.0668 128.025C63.6301 128.025 64.0895 127.817 64.4448 127.401C64.8001 126.976 64.9778 126.439 64.9778 125.789C64.9778 125.148 64.8001 124.615 64.4448 124.19C64.0895 123.765 63.6301 123.553 63.0668 123.553C62.5035 123.553 62.0441 123.765 61.6888 124.19C61.3335 124.615 61.1558 125.148 61.1558 125.789C61.1558 126.439 61.3335 126.976 61.6888 127.401C62.0441 127.817 62.5035 128.025 63.0668 128.025ZM70.489 129H67.811V122.578H70.541C71.139 122.578 71.6113 122.738 71.958 123.059C72.3047 123.38 72.478 123.761 72.478 124.203C72.478 124.498 72.4 124.771 72.244 125.022C72.0967 125.265 71.8887 125.451 71.62 125.581V125.607C71.984 125.72 72.27 125.915 72.478 126.192C72.6947 126.469 72.803 126.773 72.803 127.102C72.803 127.691 72.5777 128.155 72.127 128.493C71.6763 128.831 71.1303 129 70.489 129ZM69.098 125.165H70.268C70.5107 125.165 70.7273 125.096 70.918 124.957C71.1087 124.81 71.204 124.615 71.204 124.372C71.204 124.129 71.1087 123.939 70.918 123.8C70.7273 123.661 70.5107 123.592 70.268 123.592H69.098V125.165ZM69.098 127.986H70.281C70.6277 127.986 70.9137 127.912 71.139 127.765C71.3643 127.609 71.477 127.384 71.477 127.089C71.477 126.794 71.3643 126.573 71.139 126.426C70.9137 126.27 70.6277 126.192 70.281 126.192H69.098V127.986ZM74.3872 129V122.578H75.6612V125.139H78.4302V122.578H79.7042V129H78.4302V126.192H75.6612V129H74.3872ZM84.4457 129.156C83.5617 129.156 82.8077 128.84 82.1837 128.207C81.5597 127.574 81.2477 126.768 81.2477 125.789C81.2477 124.81 81.5597 124.004 82.1837 123.371C82.8077 122.738 83.5617 122.422 84.4457 122.422C85.3297 122.422 86.0837 122.738 86.7077 123.371C87.3317 124.004 87.6437 124.81 87.6437 125.789C87.6437 126.768 87.3317 127.574 86.7077 128.207C86.0837 128.84 85.3297 129.156 84.4457 129.156ZM84.4457 128.025C85.0091 128.025 85.4684 127.817 85.8237 127.401C86.1791 126.976 86.3567 126.439 86.3567 125.789C86.3567 125.148 86.1791 124.615 85.8237 124.19C85.4684 123.765 85.0091 123.553 84.4457 123.553C83.8824 123.553 83.4231 123.765 83.0677 124.19C82.7124 124.615 82.5347 125.148 82.5347 125.789C82.5347 126.439 82.7124 126.976 83.0677 127.401C83.4231 127.817 83.8824 128.025 84.4457 128.025ZM92.2495 129V122.578H97.4365V129H96.1625V123.631H93.5235V129H92.2495ZM100.543 125.776C100.543 126.417 100.721 126.955 101.076 127.388C101.44 127.813 101.908 128.025 102.48 128.025C103.052 128.025 103.516 127.813 103.871 127.388C104.235 126.955 104.417 126.417 104.417 125.776C104.417 125.135 104.235 124.606 103.871 124.19C103.516 123.765 103.052 123.553 102.48 123.553C101.908 123.553 101.44 123.765 101.076 124.19C100.721 124.606 100.543 125.135 100.543 125.776ZM100.582 128.025V131.405H99.3081V122.578H100.582V123.553H100.608C100.807 123.232 101.089 122.964 101.453 122.747C101.826 122.53 102.246 122.422 102.714 122.422C103.572 122.422 104.287 122.738 104.859 123.371C105.431 124.004 105.717 124.81 105.717 125.789C105.717 126.768 105.431 127.574 104.859 128.207C104.287 128.84 103.572 129.156 102.714 129.156C102.246 129.156 101.826 129.048 101.453 128.831C101.089 128.614 100.807 128.346 100.608 128.025H100.582ZM107.268 129V122.578H108.542V126.972H108.568L111.558 122.578H112.715V129H111.441V124.619H111.415L108.425 129H107.268ZM117.44 129.156C116.548 129.156 115.794 128.84 115.178 128.207C114.572 127.574 114.268 126.768 114.268 125.789C114.268 124.81 114.572 124.004 115.178 123.371C115.794 122.738 116.548 122.422 117.44 122.422C117.934 122.422 118.372 122.513 118.753 122.695C119.143 122.868 119.46 123.076 119.702 123.319L118.909 124.112C118.762 123.973 118.567 123.843 118.324 123.722C118.09 123.601 117.804 123.54 117.466 123.54C116.894 123.54 116.431 123.757 116.075 124.19C115.72 124.623 115.542 125.156 115.542 125.789C115.542 126.43 115.72 126.968 116.075 127.401C116.431 127.834 116.894 128.051 117.466 128.051C117.804 128.051 118.09 127.99 118.324 127.869C118.567 127.739 118.762 127.605 118.909 127.466L119.702 128.259C119.46 128.502 119.143 128.714 118.753 128.896C118.372 129.069 117.934 129.156 117.44 129.156ZM126.62 129V122.578H127.894V129H126.62ZM121.017 129V122.578H122.291V124.684H123.5C124.133 124.684 124.674 124.883 125.125 125.282C125.584 125.672 125.814 126.192 125.814 126.842C125.814 127.492 125.584 128.016 125.125 128.415C124.674 128.805 124.133 129 123.5 129H121.017ZM122.291 127.947H123.331C123.652 127.947 123.929 127.856 124.163 127.674C124.397 127.483 124.514 127.206 124.514 126.842C124.514 126.478 124.397 126.205 124.163 126.023C123.929 125.832 123.652 125.737 123.331 125.737H122.291V127.947ZM129.764 129V122.578H134.951V129H133.677V123.631H131.038V129H129.764ZM138.942 128.09C139.375 128.09 139.752 127.943 140.073 127.648C140.402 127.345 140.567 126.933 140.567 126.413V126.088C140.376 126.062 140.177 126.04 139.969 126.023C139.761 126.006 139.583 125.997 139.436 125.997C138.881 125.997 138.456 126.097 138.162 126.296C137.867 126.487 137.72 126.747 137.72 127.076C137.72 127.336 137.824 127.57 138.032 127.778C138.24 127.986 138.543 128.09 138.942 128.09ZM138.682 129.156C138.032 129.156 137.494 128.957 137.07 128.558C136.645 128.151 136.433 127.657 136.433 127.076C136.433 126.547 136.649 126.066 137.083 125.633C137.525 125.2 138.248 124.983 139.254 124.983C139.436 124.983 139.644 124.996 139.878 125.022C140.12 125.039 140.35 125.065 140.567 125.1V124.762C140.567 124.363 140.437 124.06 140.177 123.852C139.917 123.644 139.587 123.54 139.189 123.54C138.859 123.54 138.543 123.601 138.24 123.722C137.936 123.843 137.689 123.969 137.499 124.099L136.693 123.293C137.005 123.033 137.377 122.825 137.811 122.669C138.253 122.504 138.721 122.422 139.215 122.422C140.021 122.422 140.658 122.639 141.126 123.072C141.602 123.505 141.841 124.095 141.841 124.84V129H140.593V128.298H140.567C140.376 128.558 140.116 128.766 139.787 128.922C139.457 129.078 139.089 129.156 138.682 129.156ZM145.031 129V123.631H143.068V122.578H148.424L148.047 123.631H146.305V129H145.031ZM149.518 129V122.578H150.792V124.684H152.066C152.699 124.684 153.24 124.883 153.691 125.282C154.15 125.672 154.38 126.192 154.38 126.842C154.38 127.492 154.15 128.016 153.691 128.415C153.24 128.805 152.699 129 152.066 129H149.518ZM150.792 127.947H151.897C152.218 127.947 152.495 127.856 152.729 127.674C152.963 127.483 153.08 127.206 153.08 126.842C153.08 126.478 152.963 126.205 152.729 126.023C152.495 125.832 152.218 125.737 151.897 125.737H150.792V127.947ZM23.936 145V138.578H29.123V145H27.849V139.631H25.21V145H23.936ZM31.4886 147.548C31.2286 147.548 30.9469 147.496 30.6436 147.392C30.3403 147.297 30.0716 147.136 29.8376 146.911L30.6696 146.079C30.7823 146.174 30.9079 146.248 31.0466 146.3C31.1939 146.361 31.3413 146.391 31.4886 146.391C31.7053 146.391 31.9263 146.309 32.1516 146.144C32.3856 145.979 32.5849 145.659 32.7496 145.182L30.1756 138.578H31.6316L33.4256 143.544H33.4516L35.0246 138.578H36.4156L33.9846 145.52C33.7853 146.092 33.4863 146.573 33.0876 146.963C32.6889 147.353 32.1559 147.548 31.4886 147.548ZM38.5352 143.921V143.947H41.2262V139.631H39.3282C39.3022 139.926 39.2719 140.285 39.2372 140.71C39.2025 141.126 39.1549 141.564 39.0942 142.023C39.0509 142.422 38.9815 142.781 38.8862 143.102C38.7909 143.414 38.6739 143.687 38.5352 143.921ZM36.6632 146.482V143.947H37.1312C37.3479 143.8 37.5169 143.544 37.6382 143.18C37.7595 142.816 37.8505 142.378 37.9112 141.867C38.0412 140.888 38.1279 140.095 38.1712 139.488C38.2145 138.881 38.2362 138.578 38.2362 138.578H42.5002V143.947H43.3452V146.482H42.1882V145H37.8202V146.482H36.6632ZM45.7374 141.776C45.7374 142.417 45.9151 142.955 46.2704 143.388C46.6344 143.813 47.1024 144.025 47.6744 144.025C48.2464 144.025 48.7101 143.813 49.0654 143.388C49.4294 142.955 49.6114 142.417 49.6114 141.776C49.6114 141.135 49.4294 140.606 49.0654 140.19C48.7101 139.765 48.2464 139.553 47.6744 139.553C47.1024 139.553 46.6344 139.765 46.2704 140.19C45.9151 140.606 45.7374 141.135 45.7374 141.776ZM45.7764 144.025V147.405H44.5024V138.578H45.7764V139.553H45.8024C46.0017 139.232 46.2834 138.964 46.6474 138.747C47.0201 138.53 47.4404 138.422 47.9084 138.422C48.7664 138.422 49.4814 138.738 50.0534 139.371C50.6254 140.004 50.9114 140.81 50.9114 141.789C50.9114 142.768 50.6254 143.574 50.0534 144.207C49.4814 144.84 48.7664 145.156 47.9084 145.156C47.4404 145.156 47.0201 145.048 46.6474 144.831C46.2834 144.614 46.0017 144.346 45.8024 144.025H45.7764ZM55.3354 145.156C54.4514 145.156 53.6974 144.84 53.0734 144.207C52.4494 143.574 52.1374 142.768 52.1374 141.789C52.1374 140.81 52.4494 140.004 53.0734 139.371C53.6974 138.738 54.4514 138.422 55.3354 138.422C56.2194 138.422 56.9734 138.738 57.5974 139.371C58.2214 140.004 58.5334 140.81 58.5334 141.789C58.5334 142.768 58.2214 143.574 57.5974 144.207C56.9734 144.84 56.2194 145.156 55.3354 145.156ZM55.3354 144.025C55.8987 144.025 56.358 143.817 56.7134 143.401C57.0687 142.976 57.2464 142.439 57.2464 141.789C57.2464 141.148 57.0687 140.615 56.7134 140.19C56.358 139.765 55.8987 139.553 55.3354 139.553C54.772 139.553 54.3127 139.765 53.9574 140.19C53.602 140.615 53.4244 141.148 53.4244 141.789C53.4244 142.439 53.602 142.976 53.9574 143.401C54.3127 143.817 54.772 144.025 55.3354 144.025ZM60.0796 145V138.578H61.3536V142.972H61.3796L64.3696 138.578H65.5266V145H64.2526V140.619H64.2266L61.2366 145H60.0796ZM62.8356 137.746C62.2809 137.746 61.8216 137.625 61.4576 137.382C61.1022 137.131 60.8596 136.914 60.7296 136.732L61.4576 136.017C61.5702 136.147 61.7522 136.29 62.0036 136.446C62.2549 136.593 62.5322 136.667 62.8356 136.667C63.1389 136.667 63.4162 136.593 63.6676 136.446C63.9189 136.29 64.1009 136.147 64.2136 136.017L64.9416 136.732C64.8116 136.914 64.5646 137.131 64.2006 137.382C63.8452 137.625 63.3902 137.746 62.8356 137.746ZM67.5608 146.794L68.1328 145H67.5348V143.18H69.1468V145L68.3928 146.794H67.5608ZM73.9884 145L75.5874 138.578H76.5884L78.3564 143.336H78.3824L80.1894 138.578H81.1904L82.7894 145H81.4634L80.4884 140.84H80.4624L78.8764 145H77.8104L76.2374 140.866H76.2114L75.2494 145H73.9884ZM90.0449 145V138.578H91.3189V145H90.0449ZM84.4419 145V138.578H85.7159V140.684H86.9249C87.5575 140.684 88.0992 140.883 88.5499 141.282C89.0092 141.672 89.2389 142.192 89.2389 142.842C89.2389 143.492 89.0092 144.016 88.5499 144.415C88.0992 144.805 87.5575 145 86.9249 145H84.4419ZM85.7159 143.947H86.7559C87.0765 143.947 87.3539 143.856 87.5879 143.674C87.8219 143.483 87.9389 143.206 87.9389 142.842C87.9389 142.478 87.8219 142.205 87.5879 142.023C87.3539 141.832 87.0765 141.737 86.7559 141.737H85.7159V143.947ZM96.2485 145V138.578H101.436V145H100.162V139.631H97.5225V145H96.2485ZM106.18 145.156C105.296 145.156 104.542 144.84 103.918 144.207C103.294 143.574 102.982 142.768 102.982 141.789C102.982 140.81 103.294 140.004 103.918 139.371C104.542 138.738 105.296 138.422 106.18 138.422C107.064 138.422 107.818 138.738 108.442 139.371C109.066 140.004 109.378 140.81 109.378 141.789C109.378 142.768 109.066 143.574 108.442 144.207C107.818 144.84 107.064 145.156 106.18 145.156ZM106.18 144.025C106.743 144.025 107.203 143.817 107.558 143.401C107.913 142.976 108.091 142.439 108.091 141.789C108.091 141.148 107.913 140.615 107.558 140.19C107.203 139.765 106.743 139.553 106.18 139.553C105.617 139.553 105.157 139.765 104.802 140.19C104.447 140.615 104.269 141.148 104.269 141.789C104.269 142.439 104.447 142.976 104.802 143.401C105.157 143.817 105.617 144.025 106.18 144.025ZM110.667 145.13C110.537 145.13 110.407 145.113 110.277 145.078C110.156 145.043 110.082 145.022 110.056 145.013V143.908C110.074 143.917 110.113 143.93 110.173 143.947C110.234 143.964 110.303 143.973 110.381 143.973C110.676 143.973 110.884 143.813 111.005 143.492C111.135 143.171 111.226 142.686 111.278 142.036C111.313 141.594 111.343 141.165 111.369 140.749C111.404 140.324 111.43 139.956 111.447 139.644C111.465 139.323 111.478 139.068 111.486 138.877C111.504 138.678 111.512 138.578 111.512 138.578H115.854V145H114.567V139.631H112.643C112.635 139.943 112.617 140.32 112.591 140.762C112.565 141.204 112.535 141.642 112.5 142.075C112.431 143.054 112.258 143.808 111.98 144.337C111.703 144.866 111.265 145.13 110.667 145.13ZM118.223 147.548C117.963 147.548 117.681 147.496 117.378 147.392C117.075 147.297 116.806 147.136 116.572 146.911L117.404 146.079C117.517 146.174 117.642 146.248 117.781 146.3C117.928 146.361 118.076 146.391 118.223 146.391C118.44 146.391 118.661 146.309 118.886 146.144C119.12 145.979 119.319 145.659 119.484 145.182L116.91 138.578H118.366L120.16 143.544H120.186L121.759 138.578H123.15L120.719 145.52C120.52 146.092 120.221 146.573 119.822 146.963C119.423 147.353 118.89 147.548 118.223 147.548ZM128.13 145V142.062H128.104C127.939 142.261 127.696 142.439 127.376 142.595C127.064 142.751 126.717 142.829 126.336 142.829C125.764 142.829 125.248 142.634 124.789 142.244C124.338 141.845 124.113 141.26 124.113 140.489V138.578H125.387V140.242C125.387 140.745 125.504 141.113 125.738 141.347C125.972 141.572 126.275 141.685 126.648 141.685C126.96 141.685 127.246 141.611 127.506 141.464C127.774 141.308 127.982 141.135 128.13 140.944V138.578H129.404V145H128.13ZM131.275 145V138.578H132.549V142.972H132.575L135.565 138.578H136.722V145H135.448V140.619H135.422L132.432 145H131.275ZM138.379 145L139.978 138.578H140.979L142.747 143.336H142.773L144.58 138.578H145.581L147.18 145H145.854L144.879 140.84H144.853L143.267 145H142.201L140.628 140.866H140.602L139.64 145H138.379ZM23.936 161V154.578H28.135L27.758 155.631H25.21V161H23.936ZM31.8871 161.156C31.0031 161.156 30.2491 160.84 29.6251 160.207C29.0011 159.574 28.6891 158.768 28.6891 157.789C28.6891 156.81 29.0011 156.004 29.6251 155.371C30.2491 154.738 31.0031 154.422 31.8871 154.422C32.7711 154.422 33.5251 154.738 34.1491 155.371C34.7731 156.004 35.0851 156.81 35.0851 157.789C35.0851 158.768 34.7731 159.574 34.1491 160.207C33.5251 160.84 32.7711 161.156 31.8871 161.156ZM31.8871 160.025C32.4505 160.025 32.9098 159.817 33.2651 159.401C33.6205 158.976 33.7981 158.439 33.7981 157.789C33.7981 157.148 33.6205 156.615 33.2651 156.19C32.9098 155.765 32.4505 155.553 31.8871 155.553C31.3238 155.553 30.8645 155.765 30.5091 156.19C30.1538 156.615 29.9761 157.148 29.9761 157.789C29.9761 158.439 30.1538 158.976 30.5091 159.401C30.8645 159.817 31.3238 160.025 31.8871 160.025ZM39.3093 161H36.6313V154.578H39.3613C39.9593 154.578 40.4316 154.738 40.7783 155.059C41.125 155.38 41.2983 155.761 41.2983 156.203C41.2983 156.498 41.2203 156.771 41.0643 157.022C40.917 157.265 40.709 157.451 40.4403 157.581V157.607C40.8043 157.72 41.0903 157.915 41.2983 158.192C41.515 158.469 41.6233 158.773 41.6233 159.102C41.6233 159.691 41.398 160.155 40.9473 160.493C40.4966 160.831 39.9506 161 39.3093 161ZM37.9183 157.165H39.0883C39.331 157.165 39.5476 157.096 39.7383 156.957C39.929 156.81 40.0243 156.615 40.0243 156.372C40.0243 156.129 39.929 155.939 39.7383 155.8C39.5476 155.661 39.331 155.592 39.0883 155.592H37.9183V157.165ZM37.9183 159.986H39.1013C39.448 159.986 39.734 159.912 39.9593 159.765C40.1846 159.609 40.2973 159.384 40.2973 159.089C40.2973 158.794 40.1846 158.573 39.9593 158.426C39.734 158.27 39.448 158.192 39.1013 158.192H37.9183V159.986ZM43.2075 161V154.578H44.4815V157.139H47.2505V154.578H48.5245V161H47.2505V158.192H44.4815V161H43.2075ZM53.266 161.156C52.382 161.156 51.628 160.84 51.004 160.207C50.38 159.574 50.068 158.768 50.068 157.789C50.068 156.81 50.38 156.004 51.004 155.371C51.628 154.738 52.382 154.422 53.266 154.422C54.15 154.422 54.904 154.738 55.528 155.371C56.152 156.004 56.464 156.81 56.464 157.789C56.464 158.768 56.152 159.574 55.528 160.207C54.904 160.84 54.15 161.156 53.266 161.156ZM53.266 160.025C53.8294 160.025 54.2887 159.817 54.644 159.401C54.9994 158.976 55.177 158.439 55.177 157.789C55.177 157.148 54.9994 156.615 54.644 156.19C54.2887 155.765 53.8294 155.553 53.266 155.553C52.7027 155.553 52.2434 155.765 51.888 156.19C51.5327 156.615 51.355 157.148 51.355 157.789C51.355 158.439 51.5327 158.976 51.888 159.401C52.2434 159.817 52.7027 160.025 53.266 160.025ZM58.1662 162.794L58.7382 161H58.1402V159.18H59.7522V161L58.9982 162.794H58.1662ZM64.8149 161V154.578H70.0019V161H68.7279V155.631H66.0889V161H64.8149ZM73.1085 157.776C73.1085 158.417 73.2862 158.955 73.6415 159.388C74.0055 159.813 74.4735 160.025 75.0455 160.025C75.6175 160.025 76.0812 159.813 76.4365 159.388C76.8005 158.955 76.9825 158.417 76.9825 157.776C76.9825 157.135 76.8005 156.606 76.4365 156.19C76.0812 155.765 75.6175 155.553 75.0455 155.553C74.4735 155.553 74.0055 155.765 73.6415 156.19C73.2862 156.606 73.1085 157.135 73.1085 157.776ZM73.1475 160.025V163.405H71.8735V154.578H73.1475V155.553H73.1735C73.3728 155.232 73.6545 154.964 74.0185 154.747C74.3912 154.53 74.8115 154.422 75.2795 154.422C76.1375 154.422 76.8525 154.738 77.4245 155.371C77.9965 156.004 78.2825 156.81 78.2825 157.789C78.2825 158.768 77.9965 159.574 77.4245 160.207C76.8525 160.84 76.1375 161.156 75.2795 161.156C74.8115 161.156 74.3912 161.048 74.0185 160.831C73.6545 160.614 73.3728 160.346 73.1735 160.025H73.1475ZM79.8335 161V154.578H81.1075V158.972H81.1335L84.1235 154.578H85.2805V161H84.0065V156.619H83.9805L80.9905 161H79.8335ZM90.0057 161.156C89.113 161.156 88.359 160.84 87.7437 160.207C87.137 159.574 86.8337 158.768 86.8337 157.789C86.8337 156.81 87.137 156.004 87.7437 155.371C88.359 154.738 89.113 154.422 90.0057 154.422C90.4997 154.422 90.9373 154.513 91.3187 154.695C91.7087 154.868 92.025 155.076 92.2677 155.319L91.4747 156.112C91.3273 155.973 91.1323 155.843 90.8897 155.722C90.6557 155.601 90.3697 155.54 90.0317 155.54C89.4597 155.54 88.996 155.757 88.6407 156.19C88.2853 156.623 88.1077 157.156 88.1077 157.789C88.1077 158.43 88.2853 158.968 88.6407 159.401C88.996 159.834 89.4597 160.051 90.0317 160.051C90.3697 160.051 90.6557 159.99 90.8897 159.869C91.1323 159.739 91.3273 159.605 91.4747 159.466L92.2677 160.259C92.025 160.502 91.7087 160.714 91.3187 160.896C90.9373 161.069 90.4997 161.156 90.0057 161.156ZM99.1855 161V154.578H100.459V161H99.1855ZM93.5825 161V154.578H94.8565V156.684H96.0655C96.6982 156.684 97.2398 156.883 97.6905 157.282C98.1498 157.672 98.3795 158.192 98.3795 158.842C98.3795 159.492 98.1498 160.016 97.6905 160.415C97.2398 160.805 96.6982 161 96.0655 161H93.5825ZM94.8565 159.947H95.8965C96.2172 159.947 96.4945 159.856 96.7285 159.674C96.9625 159.483 97.0795 159.206 97.0795 158.842C97.0795 158.478 96.9625 158.205 96.7285 158.023C96.4945 157.832 96.2172 157.737 95.8965 157.737H94.8565V159.947ZM102.33 161V154.578H107.517V161H106.243V155.631H103.604V161H102.33ZM111.507 160.09C111.94 160.09 112.317 159.943 112.638 159.648C112.967 159.345 113.132 158.933 113.132 158.413V158.088C112.941 158.062 112.742 158.04 112.534 158.023C112.326 158.006 112.148 157.997 112.001 157.997C111.446 157.997 111.022 158.097 110.727 158.296C110.432 158.487 110.285 158.747 110.285 159.076C110.285 159.336 110.389 159.57 110.597 159.778C110.805 159.986 111.108 160.09 111.507 160.09ZM111.247 161.156C110.597 161.156 110.06 160.957 109.635 160.558C109.21 160.151 108.998 159.657 108.998 159.076C108.998 158.547 109.215 158.066 109.648 157.633C110.09 157.2 110.814 156.983 111.819 156.983C112.001 156.983 112.209 156.996 112.443 157.022C112.686 157.039 112.915 157.065 113.132 157.1V156.762C113.132 156.363 113.002 156.06 112.742 155.852C112.482 155.644 112.153 155.54 111.754 155.54C111.425 155.54 111.108 155.601 110.805 155.722C110.502 155.843 110.255 155.969 110.064 156.099L109.258 155.293C109.57 155.033 109.943 154.825 110.376 154.669C110.818 154.504 111.286 154.422 111.78 154.422C112.586 154.422 113.223 154.639 113.691 155.072C114.168 155.505 114.406 156.095 114.406 156.84V161H113.158V160.298H113.132C112.941 160.558 112.681 160.766 112.352 160.922C112.023 161.078 111.654 161.156 111.247 161.156ZM116.218 161V154.578H117.492V157.139H120.261V154.578H121.535V161H120.261V158.192H117.492V161H116.218ZM123.404 161V154.578H124.678V157.139H127.447V154.578H128.721V161H127.447V158.192H124.678V161H123.404ZM133.462 161.156C132.578 161.156 131.824 160.84 131.2 160.207C130.576 159.574 130.264 158.768 130.264 157.789C130.264 156.81 130.576 156.004 131.2 155.371C131.824 154.738 132.578 154.422 133.462 154.422C134.346 154.422 135.1 154.738 135.724 155.371C136.348 156.004 136.66 156.81 136.66 157.789C136.66 158.768 136.348 159.574 135.724 160.207C135.1 160.84 134.346 161.156 133.462 161.156ZM133.462 160.025C134.026 160.025 134.485 159.817 134.84 159.401C135.196 158.976 135.373 158.439 135.373 157.789C135.373 157.148 135.196 156.615 134.84 156.19C134.485 155.765 134.026 155.553 133.462 155.553C132.899 155.553 132.44 155.765 132.084 156.19C131.729 156.615 131.551 157.148 131.551 157.789C131.551 158.439 131.729 158.976 132.084 159.401C132.44 159.817 132.899 160.025 133.462 160.025ZM141.132 161.156C140.256 161.156 139.494 160.853 138.844 160.246C138.202 159.631 137.882 158.816 137.882 157.802C137.882 156.805 138.185 155.995 138.792 155.371C139.398 154.738 140.126 154.422 140.976 154.422C141.808 154.422 142.531 154.717 143.147 155.306C143.762 155.887 144.07 156.792 144.07 158.023V158.205H139.208C139.277 158.777 139.507 159.223 139.897 159.544C140.295 159.856 140.746 160.012 141.249 160.012C141.526 160.012 141.803 159.964 142.081 159.869C142.367 159.765 142.635 159.605 142.887 159.388L143.693 160.194C143.372 160.506 142.986 160.744 142.536 160.909C142.094 161.074 141.626 161.156 141.132 161.156ZM139.221 157.243H142.705C142.67 156.81 142.497 156.42 142.185 156.073C141.881 155.726 141.491 155.553 141.015 155.553C140.512 155.553 140.1 155.722 139.78 156.06C139.468 156.398 139.281 156.792 139.221 157.243ZM23.936 177V170.578H29.123V177H27.849V171.631H25.21V177H23.936ZM31.4886 179.548C31.2286 179.548 30.9469 179.496 30.6436 179.392C30.3403 179.297 30.0716 179.136 29.8376 178.911L30.6696 178.079C30.7823 178.174 30.9079 178.248 31.0466 178.3C31.1939 178.361 31.3413 178.391 31.4886 178.391C31.7053 178.391 31.9263 178.309 32.1516 178.144C32.3856 177.979 32.5849 177.659 32.7496 177.182L30.1756 170.578H31.6316L33.4256 175.544H33.4516L35.0246 170.578H36.4156L33.9846 177.52C33.7853 178.092 33.4863 178.573 33.0876 178.963C32.6889 179.353 32.1559 179.548 31.4886 179.548ZM38.5352 175.921V175.947H41.2262V171.631H39.3282C39.3022 171.926 39.2719 172.285 39.2372 172.71C39.2025 173.126 39.1549 173.564 39.0942 174.023C39.0509 174.422 38.9815 174.781 38.8862 175.102C38.7909 175.414 38.6739 175.687 38.5352 175.921ZM36.6632 178.482V175.947H37.1312C37.3479 175.8 37.5169 175.544 37.6382 175.18C37.7595 174.816 37.8505 174.378 37.9112 173.867C38.0412 172.888 38.1279 172.095 38.1712 171.488C38.2145 170.881 38.2362 170.578 38.2362 170.578H42.5002V175.947H43.3452V178.482H42.1882V177H37.8202V178.482H36.6632ZM45.7374 173.776C45.7374 174.417 45.9151 174.955 46.2704 175.388C46.6344 175.813 47.1024 176.025 47.6744 176.025C48.2464 176.025 48.7101 175.813 49.0654 175.388C49.4294 174.955 49.6114 174.417 49.6114 173.776C49.6114 173.135 49.4294 172.606 49.0654 172.19C48.7101 171.765 48.2464 171.553 47.6744 171.553C47.1024 171.553 46.6344 171.765 46.2704 172.19C45.9151 172.606 45.7374 173.135 45.7374 173.776ZM45.7764 176.025V179.405H44.5024V170.578H45.7764V171.553H45.8024C46.0017 171.232 46.2834 170.964 46.6474 170.747C47.0201 170.53 47.4404 170.422 47.9084 170.422C48.7664 170.422 49.4814 170.738 50.0534 171.371C50.6254 172.004 50.9114 172.81 50.9114 173.789C50.9114 174.768 50.6254 175.574 50.0534 176.207C49.4814 176.84 48.7664 177.156 47.9084 177.156C47.4404 177.156 47.0201 177.048 46.6474 176.831C46.2834 176.614 46.0017 176.346 45.8024 176.025H45.7764ZM55.3354 177.156C54.4514 177.156 53.6974 176.84 53.0734 176.207C52.4494 175.574 52.1374 174.768 52.1374 173.789C52.1374 172.81 52.4494 172.004 53.0734 171.371C53.6974 170.738 54.4514 170.422 55.3354 170.422C56.2194 170.422 56.9734 170.738 57.5974 171.371C58.2214 172.004 58.5334 172.81 58.5334 173.789C58.5334 174.768 58.2214 175.574 57.5974 176.207C56.9734 176.84 56.2194 177.156 55.3354 177.156ZM55.3354 176.025C55.8987 176.025 56.358 175.817 56.7134 175.401C57.0687 174.976 57.2464 174.439 57.2464 173.789C57.2464 173.148 57.0687 172.615 56.7134 172.19C56.358 171.765 55.8987 171.553 55.3354 171.553C54.772 171.553 54.3127 171.765 53.9574 172.19C53.602 172.615 53.4244 173.148 53.4244 173.789C53.4244 174.439 53.602 174.976 53.9574 175.401C54.3127 175.817 54.772 176.025 55.3354 176.025ZM60.0796 177V170.578H61.3536V174.972H61.3796L64.3696 170.578H65.5266V177H64.2526V172.619H64.2266L61.2366 177H60.0796ZM62.8356 169.746C62.2809 169.746 61.8216 169.625 61.4576 169.382C61.1022 169.131 60.8596 168.914 60.7296 168.732L61.4576 168.017C61.5702 168.147 61.7522 168.29 62.0036 168.446C62.2549 168.593 62.5322 168.667 62.8356 168.667C63.1389 168.667 63.4162 168.593 63.6676 168.446C63.9189 168.29 64.1009 168.147 64.2136 168.017L64.9416 168.732C64.8116 168.914 64.5646 169.131 64.2006 169.382C63.8452 169.625 63.3902 169.746 62.8356 169.746ZM67.5348 177V175.18H69.1468V177H67.5348Z" fill="black"/>
<g filter="url(#filter0_d)">
<path d="M10 48C10 25.9086 27.9086 8 50 8H227C249.091 8 267 25.9086 267 48V188C267 210.091 249.091 228 227 228H50C27.9086 228 10 210.091 10 188V48Z" fill="white"/>
</g>
<rect x="55" y="8" width="122" height="220" fill="white"/>
<rect x="8" y="8" width="52" height="220" fill="#ED1832"/>
<path d="M8 54L8 46L78 46L78 54L8 54Z" fill="#0078BF"/>
<circle cx="78" cy="50" r="6" transform="rotate(-90 78 50)" fill="#0078BF"/>
<circle cx="78" cy="50" r="3" transform="rotate(-90 78 50)" fill="white"/>
<path d="M8 92L8 84L78 84L78 92L8 92Z" fill="#19C1F3"/>
<circle cx="78" cy="88" r="6" transform="rotate(-90 78 88)" fill="#19C1F3"/>
<circle cx="78" cy="88" r="3" transform="rotate(-90 78 88)" fill="white"/>
<path d="M8 127L8 119L78 119L78 127L8 127Z" fill="#894E35"/>
<circle cx="78" cy="123" r="6" transform="rotate(-90 78 123)" fill="#894E35"/>
<circle cx="78" cy="123" r="3" transform="rotate(-90 78 123)" fill="white"/>
<path d="M8 163L8 155L78 155L78 163L8 163Z" fill="#44B85C"/>
<path d="M8 163L8 155L78 155L78 163L8 163Z" fill="#F58631"/>
<circle cx="78" cy="159" r="6" transform="rotate(-90 78 159)" fill="#F58631"/>
<circle cx="78" cy="159" r="3" transform="rotate(-90 78 159)" fill="white"/>
<path d="M8 198L8 190L78 190L78 198L8 198Z" fill="#44B85C"/>
<circle cx="78" cy="194" r="6" transform="rotate(-90 78 194)" fill="#44B85C"/>
<circle cx="78" cy="194" r="3" transform="rotate(-90 78 194)" fill="white"/>
<defs>
<filter id="filter0_d" x="0" y="0" width="277" height="240" filterUnits="userSpaceOnUse" color-interpolation-filters="sRGB">
<feFlood flood-opacity="0" result="BackgroundImageFix"/>
<feColorMatrix in="SourceAlpha" type="matrix" values="0 0 0 0 0 0 0 0 0 0 0 0 0 0 0 0 0 0 127 0"/>
<feOffset dy="2"/>
<feGaussianBlur stdDeviation="5"/>
<feColorMatrix type="matrix" values="0 0 0 0 0 0 0 0 0 0 0 0 0 0 0 0 0 0 0.25 0"/>
<feBlend mode="normal" in2="BackgroundImageFix" result="effect1_dropShadow"/>
<feBlend mode="normal" in="SourceGraphic" in2="effect1_dropShadow" result="shape"/>
</filter>
</defs>
</svg>
