<svg width="196" height="171" viewBox="0 0 196 171" fill="none" xmlns="http://www.w3.org/2000/svg">
<circle cx="134" cy="11" r="11" fill="#ED1832"/>
<circle cx="185" cy="47" r="11" fill="#44B85C"/>
<circle cx="173" cy="82" r="11" fill="#0078BF"/>
<circle cx="124" cy="119" r="11" fill="#19C1F3"/>
<circle cx="123" cy="160" r="11" fill="#894E35"/>
<path d="M135 7L135 15L-4.2985e-06 15L-3.94881e-06 6.99999L135 7Z" fill="#ED1832"/>
<path d="M186 43L186 51L3.16698e-06 51L3.51667e-06 43L186 43Z" fill="#44B85C"/>
<path d="M174 78L174 86L7.10089e-06 86L7.45058e-06 78L174 78Z" fill="#0078BF"/>
<path d="M125 115L125 123L-1.02024e-06 123L-6.70552e-07 115L125 115Z" fill="#19C1F3"/>
<path d="M124 156L124 164L-6.92418e-07 164L-3.42727e-07 156L124 156Z" fill="#894E35"/>
<circle cx="134" cy="11" r="6" fill="white"/>
<circle cx="185" cy="47" r="6" fill="white"/>
<circle cx="173" cy="82" r="6" fill="white"/>
<circle cx="124" cy="119" r="6" fill="white"/>
<circle cx="123" cy="160" r="6" fill="white"/>
</svg>
