<svg width="279" height="207" viewBox="0 0 279 207" fill="none" xmlns="http://www.w3.org/2000/svg">
<g filter="url(#filter0_d)">
<path d="M10.5 48C10.5 25.9086 28.4086 8 50.5 8H229C251.091 8 269 25.9086 269 48V155C269 177.091 251.091 195 229 195H50.5C28.4086 195 10.5 177.091 10.5 155V48Z" fill="white"/>
</g>
<rect x="57" y="8" width="122" height="187" fill="white"/>
<rect x="10" y="8" width="52" height="187" fill="#ED1832"/>
<path d="M10 54L10 46L80 46L80 54L10 54Z" fill="#0078BF"/>
<circle cx="80" cy="50" r="6" transform="rotate(-90 80 50)" fill="#0078BF"/>
<circle cx="80" cy="50" r="3" transform="rotate(-90 80 50)" fill="white"/>
<path d="M10 92L10 84L80 84L80 92L10 92Z" fill="#19C1F3"/>
<circle cx="80" cy="88" r="6" transform="rotate(-90 80 88)" fill="#19C1F3"/>
<circle cx="80" cy="88" r="3" transform="rotate(-90 80 88)" fill="white"/>
<path d="M10 127L10 119L80 119L80 127L10 127Z" fill="#894E35"/>
<circle cx="80" cy="123" r="6" transform="rotate(-90 80 123)" fill="#894E35"/>
<circle cx="80" cy="123" r="3" transform="rotate(-90 80 123)" fill="white"/>
<path d="M10 164L10 156L80 156L80 164L10 164Z" fill="#44B85C"/>
<circle cx="80" cy="160" r="6" transform="rotate(-90 80 160)" fill="#44B85C"/>
<circle cx="80" cy="160" r="3" transform="rotate(-90 80 160)" fill="white"/>
<defs>
<filter id="filter0_d" x="0.5" y="0" width="278.5" height="207" filterUnits="userSpaceOnUse" color-interpolation-filters="sRGB">
<feFlood flood-opacity="0" result="BackgroundImageFix"/>
<feColorMatrix in="SourceAlpha" type="matrix" values="0 0 0 0 0 0 0 0 0 0 0 0 0 0 0 0 0 0 127 0"/>
<feOffset dy="2"/>
<feGaussianBlur stdDeviation="5"/>
<feColorMatrix type="matrix" values="0 0 0 0 0 0 0 0 0 0 0 0 0 0 0 0 0 0 0.25 0"/>
<feBlend mode="normal" in2="BackgroundImageFix" result="effect1_dropShadow"/>
<feBlend mode="normal" in="SourceGraphic" in2="effect1_dropShadow" result="shape"/>
</filter>
</defs>
</svg>
