<svg width="373" height="207" viewBox="0 0 373 207" fill="none" xmlns="http://www.w3.org/2000/svg">
<g filter="url(#filter0_d)">
<path d="M10.5 48C10.5 25.9086 28.4086 8 50.5 8H229C251.091 8 269 25.9086 269 48V155C269 177.091 251.091 195 229 195H50.5C28.4086 195 10.5 177.091 10.5 155V48Z" fill="white"/>
</g>
<rect x="57" y="8" width="122" height="187" fill="white"/>
<rect x="10" y="8" width="52" height="187" fill="#ED1832"/>
<path d="M98.346 56.216C97.026 56.216 95.946 55.736 95.106 54.776C94.266 53.804 93.846 52.478 93.846 50.798V50.51C93.846 49.526 93.924 48.59 94.08 47.702C94.236 46.814 94.518 46.034 94.926 45.362C95.346 44.69 95.928 44.15 96.672 43.742C97.416 43.334 98.376 43.112 99.552 43.076C100.116 43.064 100.62 43.022 101.064 42.95C101.508 42.866 101.814 42.764 101.982 42.644V44.228C101.814 44.348 101.508 44.45 101.064 44.534C100.62 44.606 100.116 44.648 99.552 44.66C98.04 44.708 97.002 45.098 96.438 45.83C95.886 46.55 95.538 47.516 95.394 48.728H95.43C95.73 48.308 96.162 47.954 96.726 47.666C97.29 47.366 97.914 47.216 98.598 47.216C99.726 47.216 100.704 47.624 101.532 48.44C102.36 49.244 102.774 50.318 102.774 51.662C102.774 53.018 102.342 54.116 101.478 54.956C100.626 55.796 99.582 56.216 98.346 56.216ZM98.328 54.704C99.084 54.704 99.714 54.428 100.218 53.876C100.722 53.324 100.974 52.604 100.974 51.716C100.974 50.84 100.722 50.126 100.218 49.574C99.714 49.022 99.084 48.746 98.328 48.746C97.572 48.746 96.942 49.022 96.438 49.574C95.934 50.126 95.682 50.84 95.682 51.716C95.682 52.604 95.934 53.324 96.438 53.876C96.942 54.428 97.572 54.704 98.328 54.704ZM104.878 56V47.108H106.642V53.192H106.678L110.818 47.108H112.42V56H110.656V49.934H110.62L106.48 56H104.878ZM118.999 56.216C117.775 56.216 116.731 55.778 115.867 54.902C115.003 54.026 114.571 52.91 114.571 51.554C114.571 50.198 115.003 49.082 115.867 48.206C116.731 47.33 117.775 46.892 118.999 46.892C120.223 46.892 121.267 47.33 122.131 48.206C122.995 49.082 123.427 50.198 123.427 51.554C123.427 52.91 122.995 54.026 122.131 54.902C121.267 55.778 120.223 56.216 118.999 56.216ZM118.999 54.65C119.779 54.65 120.415 54.362 120.907 53.786C121.399 53.198 121.645 52.454 121.645 51.554C121.645 50.666 121.399 49.928 120.907 49.34C120.415 48.752 119.779 48.458 118.999 48.458C118.219 48.458 117.583 48.752 117.091 49.34C116.599 49.928 116.353 50.666 116.353 51.554C116.353 52.454 116.599 53.198 117.091 53.786C117.583 54.362 118.219 54.65 118.999 54.65ZM125.567 56V47.108H131.381L130.859 48.566H127.331V56H125.567ZM134.66 51.536C134.66 52.424 134.906 53.168 135.398 53.768C135.902 54.356 136.55 54.65 137.342 54.65C138.134 54.65 138.776 54.356 139.268 53.768C139.772 53.168 140.024 52.424 140.024 51.536C140.024 50.648 139.772 49.916 139.268 49.34C138.776 48.752 138.134 48.458 137.342 48.458C136.55 48.458 135.902 48.752 135.398 49.34C134.906 49.916 134.66 50.648 134.66 51.536ZM134.714 54.65V59.33H132.95V47.108H134.714V48.458H134.75C135.026 48.014 135.416 47.642 135.92 47.342C136.436 47.042 137.018 46.892 137.666 46.892C138.854 46.892 139.844 47.33 140.636 48.206C141.428 49.082 141.824 50.198 141.824 51.554C141.824 52.91 141.428 54.026 140.636 54.902C139.844 55.778 138.854 56.216 137.666 56.216C137.018 56.216 136.436 56.066 135.92 55.766C135.416 55.466 135.026 55.094 134.75 54.65H134.714ZM146.906 54.74C147.506 54.74 148.028 54.536 148.472 54.128C148.928 53.708 149.156 53.138 149.156 52.418V51.968C148.892 51.932 148.616 51.902 148.328 51.878C148.04 51.854 147.794 51.842 147.59 51.842C146.822 51.842 146.234 51.98 145.826 52.256C145.418 52.52 145.214 52.88 145.214 53.336C145.214 53.696 145.358 54.02 145.646 54.308C145.934 54.596 146.354 54.74 146.906 54.74ZM146.546 56.216C145.646 56.216 144.902 55.94 144.314 55.388C143.726 54.824 143.432 54.14 143.432 53.336C143.432 52.604 143.732 51.938 144.332 51.338C144.944 50.738 145.946 50.438 147.338 50.438C147.59 50.438 147.878 50.456 148.202 50.492C148.538 50.516 148.856 50.552 149.156 50.6V50.132C149.156 49.58 148.976 49.16 148.616 48.872C148.256 48.584 147.8 48.44 147.248 48.44C146.792 48.44 146.354 48.524 145.934 48.692C145.514 48.86 145.172 49.034 144.908 49.214L143.792 48.098C144.224 47.738 144.74 47.45 145.34 47.234C145.952 47.006 146.6 46.892 147.284 46.892C148.4 46.892 149.282 47.192 149.93 47.792C150.59 48.392 150.92 49.208 150.92 50.24V56H149.192V55.028H149.156C148.892 55.388 148.532 55.676 148.076 55.892C147.62 56.108 147.11 56.216 146.546 56.216ZM157.551 54.776V48.35C156.723 48.398 156.045 48.722 155.517 49.322C154.989 49.922 154.725 50.666 154.725 51.554C154.725 52.454 154.989 53.204 155.517 53.804C156.045 54.404 156.723 54.728 157.551 54.776ZM157.551 59.33V56.216C156.267 56.168 155.175 55.712 154.275 54.848C153.387 53.972 152.943 52.874 152.943 51.554C152.943 50.234 153.387 49.142 154.275 48.278C155.175 47.402 156.267 46.94 157.551 46.892V42.644H159.315V46.892C160.599 46.94 161.685 47.402 162.573 48.278C163.473 49.142 163.923 50.234 163.923 51.554C163.923 52.874 163.473 53.972 162.573 54.848C161.685 55.712 160.599 56.168 159.315 56.216V59.33H157.551ZM159.315 54.758C160.143 54.71 160.821 54.386 161.349 53.786C161.877 53.186 162.141 52.442 162.141 51.554C162.141 50.654 161.877 49.904 161.349 49.304C160.821 48.704 160.143 48.38 159.315 48.332V54.758ZM166.032 56V47.108H167.796V53.192H167.832L171.972 47.108H173.574V56H171.81V49.934H171.774L167.634 56H166.032ZM179.379 51.338H180.657V48.566H179.379C178.935 48.566 178.551 48.68 178.227 48.908C177.903 49.136 177.741 49.484 177.741 49.952C177.741 50.42 177.903 50.768 178.227 50.996C178.551 51.224 178.935 51.338 179.379 51.338ZM175.257 56L177.759 52.562V52.526C177.207 52.346 176.763 52.028 176.427 51.572C176.103 51.116 175.941 50.582 175.941 49.97C175.941 49.106 176.247 48.416 176.859 47.9C177.471 47.372 178.209 47.108 179.073 47.108H182.421V56H180.657V52.796H179.541L177.309 56H175.257Z" fill="black"/>
<path d="M98.418 90.776V84.35C97.59 84.398 96.912 84.722 96.384 85.322C95.856 85.922 95.592 86.666 95.592 87.554C95.592 88.454 95.856 89.204 96.384 89.804C96.912 90.404 97.59 90.728 98.418 90.776ZM98.418 95.33V92.216C97.134 92.168 96.042 91.712 95.142 90.848C94.254 89.972 93.81 88.874 93.81 87.554C93.81 86.234 94.254 85.142 95.142 84.278C96.042 83.402 97.134 82.94 98.418 82.892V78.644H100.182V82.892C101.466 82.94 102.552 83.402 103.44 84.278C104.34 85.142 104.79 86.234 104.79 87.554C104.79 88.874 104.34 89.972 103.44 90.848C102.552 91.712 101.466 92.168 100.182 92.216V95.33H98.418ZM100.182 90.758C101.01 90.71 101.688 90.386 102.216 89.786C102.744 89.186 103.008 88.442 103.008 87.554C103.008 86.654 102.744 85.904 102.216 85.304C101.688 84.704 101.01 84.38 100.182 84.332V90.758ZM109.834 90.74C110.434 90.74 110.956 90.536 111.4 90.128C111.856 89.708 112.084 89.138 112.084 88.418V87.968C111.82 87.932 111.544 87.902 111.256 87.878C110.968 87.854 110.722 87.842 110.518 87.842C109.75 87.842 109.162 87.98 108.754 88.256C108.346 88.52 108.142 88.88 108.142 89.336C108.142 89.696 108.286 90.02 108.574 90.308C108.862 90.596 109.282 90.74 109.834 90.74ZM109.474 92.216C108.574 92.216 107.83 91.94 107.242 91.388C106.654 90.824 106.36 90.14 106.36 89.336C106.36 88.604 106.66 87.938 107.26 87.338C107.872 86.738 108.874 86.438 110.266 86.438C110.518 86.438 110.806 86.456 111.13 86.492C111.466 86.516 111.784 86.552 112.084 86.6V86.132C112.084 85.58 111.904 85.16 111.544 84.872C111.184 84.584 110.728 84.44 110.176 84.44C109.72 84.44 109.282 84.524 108.862 84.692C108.442 84.86 108.1 85.034 107.836 85.214L106.72 84.098C107.152 83.738 107.668 83.45 108.268 83.234C108.88 83.006 109.528 82.892 110.212 82.892C111.328 82.892 112.21 83.192 112.858 83.792C113.518 84.392 113.848 85.208 113.848 86.24V92H112.12V91.028H112.084C111.82 91.388 111.46 91.676 111.004 91.892C110.548 92.108 110.038 92.216 109.474 92.216ZM116.357 92V83.108H118.121V86.726H119.561L121.973 83.108H123.953L121.109 87.266L124.511 92H122.333L119.687 88.184H118.121V92H116.357ZM127.757 92V84.566H125.039V83.108H132.455L131.933 84.566H129.521V92H127.757ZM141.728 92V83.108H143.492V92H141.728ZM133.97 92V83.108H135.734V86.024H137.408C138.284 86.024 139.034 86.3 139.658 86.852C140.294 87.392 140.612 88.112 140.612 89.012C140.612 89.912 140.294 90.638 139.658 91.19C139.034 91.73 138.284 92 137.408 92H133.97ZM135.734 90.542H137.174C137.618 90.542 138.002 90.416 138.326 90.164C138.65 89.9 138.812 89.516 138.812 89.012C138.812 88.508 138.65 88.13 138.326 87.878C138.002 87.614 137.618 87.482 137.174 87.482H135.734V90.542ZM150.317 92V83.108H152.081V89.192H152.117L156.257 83.108H157.859V92H156.095V85.934H156.059L151.919 92H150.317ZM163.214 92.216C162.422 92.216 161.738 92.096 161.162 91.856C160.586 91.604 160.13 91.31 159.794 90.974L160.892 89.876C161.096 90.068 161.384 90.254 161.756 90.434C162.128 90.614 162.59 90.704 163.142 90.704C163.766 90.704 164.228 90.572 164.528 90.308C164.828 90.044 164.978 89.744 164.978 89.408C164.978 89.06 164.84 88.76 164.564 88.508C164.288 88.256 163.808 88.13 163.124 88.13H161.864V86.726H163.124C163.616 86.726 164.012 86.63 164.312 86.438C164.612 86.234 164.762 85.934 164.762 85.538C164.762 85.154 164.612 84.866 164.312 84.674C164.024 84.482 163.658 84.386 163.214 84.386C162.758 84.386 162.344 84.476 161.972 84.656C161.6 84.836 161.306 85.022 161.09 85.214L159.992 84.116C160.364 83.78 160.844 83.492 161.432 83.252C162.032 83.012 162.71 82.892 163.466 82.892C164.282 82.892 164.996 83.114 165.608 83.558C166.22 84.002 166.526 84.584 166.526 85.304C166.526 85.748 166.4 86.138 166.148 86.474C165.896 86.81 165.572 87.074 165.176 87.266V87.302C165.656 87.446 166.04 87.71 166.328 88.094C166.628 88.478 166.778 88.898 166.778 89.354C166.778 90.23 166.43 90.926 165.734 91.442C165.038 91.958 164.198 92.216 163.214 92.216ZM171.806 92L175.01 87.266L172.346 83.108H174.236L176.468 86.726H177.746V83.108H179.51V86.726H180.788L183.02 83.108H184.91L182.246 87.266L185.45 92H183.398L180.824 88.184H179.51V92H177.746V88.184H176.432L173.858 92H171.806ZM186.88 92V83.108H188.644V89.192H188.68L192.82 83.108H194.422V92H192.658V85.934H192.622L188.482 92H186.88ZM199.777 92.216C198.985 92.216 198.301 92.096 197.725 91.856C197.149 91.604 196.693 91.31 196.357 90.974L197.455 89.876C197.659 90.068 197.947 90.254 198.319 90.434C198.691 90.614 199.153 90.704 199.705 90.704C200.329 90.704 200.791 90.572 201.091 90.308C201.391 90.044 201.541 89.744 201.541 89.408C201.541 89.06 201.403 88.76 201.127 88.508C200.851 88.256 200.371 88.13 199.687 88.13H198.427V86.726H199.687C200.179 86.726 200.575 86.63 200.875 86.438C201.175 86.234 201.325 85.934 201.325 85.538C201.325 85.154 201.175 84.866 200.875 84.674C200.587 84.482 200.221 84.386 199.777 84.386C199.321 84.386 198.907 84.476 198.535 84.656C198.163 84.836 197.869 85.022 197.653 85.214L196.555 84.116C196.927 83.78 197.407 83.492 197.995 83.252C198.595 83.012 199.273 82.892 200.029 82.892C200.845 82.892 201.559 83.114 202.171 83.558C202.783 84.002 203.089 84.584 203.089 85.304C203.089 85.748 202.963 86.138 202.711 86.474C202.459 86.81 202.135 87.074 201.739 87.266V87.302C202.219 87.446 202.603 87.71 202.891 88.094C203.191 88.478 203.341 88.898 203.341 89.354C203.341 90.23 202.993 90.926 202.297 91.442C201.601 91.958 200.761 92.216 199.777 92.216ZM205.302 92V83.108H207.066V86.654H210.9V83.108H212.664V92H210.9V88.112H207.066V92H205.302ZM215.251 92V83.108H217.015V89.192H217.051L221.191 83.108H222.793V92H221.029V85.934H220.993L216.853 92H215.251Z" fill="black"/>
<path d="M94.296 128V119.108H101.478V128H99.714V120.566H96.06V128H94.296ZM105.779 123.536C105.779 124.424 106.025 125.168 106.517 125.768C107.021 126.356 107.669 126.65 108.461 126.65C109.253 126.65 109.895 126.356 110.387 125.768C110.891 125.168 111.143 124.424 111.143 123.536C111.143 122.648 110.891 121.916 110.387 121.34C109.895 120.752 109.253 120.458 108.461 120.458C107.669 120.458 107.021 120.752 106.517 121.34C106.025 121.916 105.779 122.648 105.779 123.536ZM105.833 126.65V131.33H104.069V119.108H105.833V120.458H105.869C106.145 120.014 106.535 119.642 107.039 119.342C107.555 119.042 108.137 118.892 108.785 118.892C109.973 118.892 110.963 119.33 111.755 120.206C112.547 121.082 112.943 122.198 112.943 123.554C112.943 124.91 112.547 126.026 111.755 126.902C110.963 127.778 109.973 128.216 108.785 128.216C108.137 128.216 107.555 128.066 107.039 127.766C106.535 127.466 106.145 127.094 105.869 126.65H105.833ZM115.091 128V119.108H116.855V125.192H116.891L121.031 119.108H122.633V128H120.869V121.934H120.833L116.693 128H115.091ZM124.928 128L127.142 119.108H128.528L130.976 125.696H131.012L133.514 119.108H134.9L137.114 128H135.278L133.928 122.24H133.892L131.696 128H130.22L128.042 122.276H128.006L126.674 128H124.928ZM143.1 128.216C141.888 128.216 140.832 127.796 139.932 126.956C139.044 126.104 138.6 124.976 138.6 123.572C138.6 122.192 139.02 121.07 139.86 120.206C140.7 119.33 141.708 118.892 142.884 118.892C144.036 118.892 145.038 119.3 145.89 120.116C146.742 120.92 147.168 122.174 147.168 123.878V124.13H140.436C140.532 124.922 140.85 125.54 141.39 125.984C141.942 126.416 142.566 126.632 143.262 126.632C143.646 126.632 144.03 126.566 144.414 126.434C144.81 126.29 145.182 126.068 145.53 125.768L146.646 126.884C146.202 127.316 145.668 127.646 145.044 127.874C144.432 128.102 143.784 128.216 143.1 128.216ZM140.454 122.798H145.278C145.23 122.198 144.99 121.658 144.558 121.178C144.138 120.698 143.598 120.458 142.938 120.458C142.242 120.458 141.672 120.692 141.228 121.16C140.796 121.628 140.538 122.174 140.454 122.798ZM151.061 123.536C151.061 124.424 151.307 125.168 151.799 125.768C152.303 126.356 152.951 126.65 153.743 126.65C154.535 126.65 155.177 126.356 155.669 125.768C156.173 125.168 156.425 124.424 156.425 123.536C156.425 122.648 156.173 121.916 155.669 121.34C155.177 120.752 154.535 120.458 153.743 120.458C152.951 120.458 152.303 120.752 151.799 121.34C151.307 121.916 151.061 122.648 151.061 123.536ZM151.115 126.65V131.33H149.351V119.108H151.115V120.458H151.151C151.427 120.014 151.817 119.642 152.321 119.342C152.837 119.042 153.419 118.892 154.067 118.892C155.255 118.892 156.245 119.33 157.037 120.206C157.829 121.082 158.225 122.198 158.225 123.554C158.225 124.91 157.829 126.026 157.037 126.902C156.245 127.778 155.255 128.216 154.067 128.216C153.419 128.216 152.837 128.066 152.321 127.766C151.817 127.466 151.427 127.094 151.151 126.65H151.115ZM168.13 128V119.108H169.894V128H168.13ZM160.372 128V119.108H162.136V122.024H163.81C164.686 122.024 165.436 122.3 166.06 122.852C166.696 123.392 167.014 124.112 167.014 125.012C167.014 125.912 166.696 126.638 166.06 127.19C165.436 127.73 164.686 128 163.81 128H160.372ZM162.136 126.542H163.576C164.02 126.542 164.404 126.416 164.728 126.164C165.052 125.9 165.214 125.516 165.214 125.012C165.214 124.508 165.052 124.13 164.728 123.878C164.404 123.614 164.02 123.482 163.576 123.482H162.136V126.542ZM178.43 123.536C178.43 124.424 178.676 125.168 179.168 125.768C179.672 126.356 180.32 126.65 181.112 126.65C181.904 126.65 182.546 126.356 183.038 125.768C183.542 125.168 183.794 124.424 183.794 123.536C183.794 122.648 183.542 121.916 183.038 121.34C182.546 120.752 181.904 120.458 181.112 120.458C180.32 120.458 179.672 120.752 179.168 121.34C178.676 121.916 178.43 122.648 178.43 123.536ZM178.484 126.65V131.33H176.72V119.108H178.484V120.458H178.52C178.796 120.014 179.186 119.642 179.69 119.342C180.206 119.042 180.788 118.892 181.436 118.892C182.624 118.892 183.614 119.33 184.406 120.206C185.198 121.082 185.594 122.198 185.594 123.554C185.594 124.91 185.198 126.026 184.406 126.902C183.614 127.778 182.624 128.216 181.436 128.216C180.788 128.216 180.206 128.066 179.69 127.766C179.186 127.466 178.796 127.094 178.52 126.65H178.484ZM190.675 126.74C191.275 126.74 191.797 126.536 192.241 126.128C192.697 125.708 192.925 125.138 192.925 124.418V123.968C192.661 123.932 192.385 123.902 192.097 123.878C191.809 123.854 191.563 123.842 191.359 123.842C190.591 123.842 190.003 123.98 189.595 124.256C189.187 124.52 188.983 124.88 188.983 125.336C188.983 125.696 189.127 126.02 189.415 126.308C189.703 126.596 190.123 126.74 190.675 126.74ZM190.315 128.216C189.415 128.216 188.671 127.94 188.083 127.388C187.495 126.824 187.201 126.14 187.201 125.336C187.201 124.604 187.501 123.938 188.101 123.338C188.713 122.738 189.715 122.438 191.107 122.438C191.359 122.438 191.647 122.456 191.971 122.492C192.307 122.516 192.625 122.552 192.925 122.6V122.132C192.925 121.58 192.745 121.16 192.385 120.872C192.025 120.584 191.569 120.44 191.017 120.44C190.561 120.44 190.123 120.524 189.703 120.692C189.283 120.86 188.941 121.034 188.677 121.214L187.561 120.098C187.993 119.738 188.509 119.45 189.109 119.234C189.721 119.006 190.369 118.892 191.053 118.892C192.169 118.892 193.051 119.192 193.699 119.792C194.359 120.392 194.689 121.208 194.689 122.24V128H192.961V127.028H192.925C192.661 127.388 192.301 127.676 191.845 127.892C191.389 128.108 190.879 128.216 190.315 128.216ZM201.248 128.216C199.928 128.216 198.848 127.736 198.008 126.776C197.168 125.804 196.748 124.478 196.748 122.798V122.51C196.748 121.526 196.826 120.59 196.982 119.702C197.138 118.814 197.42 118.034 197.828 117.362C198.248 116.69 198.83 116.15 199.574 115.742C200.318 115.334 201.278 115.112 202.454 115.076C203.018 115.064 203.522 115.022 203.966 114.95C204.41 114.866 204.716 114.764 204.884 114.644V116.228C204.716 116.348 204.41 116.45 203.966 116.534C203.522 116.606 203.018 116.648 202.454 116.66C200.942 116.708 199.904 117.098 199.34 117.83C198.788 118.55 198.44 119.516 198.296 120.728H198.332C198.632 120.308 199.064 119.954 199.628 119.666C200.192 119.366 200.816 119.216 201.5 119.216C202.628 119.216 203.606 119.624 204.434 120.44C205.262 121.244 205.676 122.318 205.676 123.662C205.676 125.018 205.244 126.116 204.38 126.956C203.528 127.796 202.484 128.216 201.248 128.216ZM201.23 126.704C201.986 126.704 202.616 126.428 203.12 125.876C203.624 125.324 203.876 124.604 203.876 123.716C203.876 122.84 203.624 122.126 203.12 121.574C202.616 121.022 201.986 120.746 201.23 120.746C200.474 120.746 199.844 121.022 199.34 121.574C198.836 122.126 198.584 122.84 198.584 123.716C198.584 124.604 198.836 125.324 199.34 125.876C199.844 126.428 200.474 126.704 201.23 126.704ZM211.758 128.216C210.534 128.216 209.49 127.778 208.626 126.902C207.762 126.026 207.33 124.91 207.33 123.554C207.33 122.198 207.762 121.082 208.626 120.206C209.49 119.33 210.534 118.892 211.758 118.892C212.982 118.892 214.026 119.33 214.89 120.206C215.754 121.082 216.186 122.198 216.186 123.554C216.186 124.91 215.754 126.026 214.89 126.902C214.026 127.778 212.982 128.216 211.758 128.216ZM211.758 126.65C212.538 126.65 213.174 126.362 213.666 125.786C214.158 125.198 214.404 124.454 214.404 123.554C214.404 122.666 214.158 121.928 213.666 121.34C213.174 120.752 212.538 120.458 211.758 120.458C210.978 120.458 210.342 120.752 209.85 121.34C209.358 121.928 209.112 122.666 209.112 123.554C209.112 124.454 209.358 125.198 209.85 125.786C210.342 126.362 210.978 126.65 211.758 126.65ZM220.059 128V120.566H217.341V119.108H224.757L224.235 120.566H221.823V128H220.059Z" fill="black"/>
<path d="M94.296 165V156.108H96.06V159.726H97.5L99.912 156.108H101.892L99.048 160.266L102.45 165H100.272L97.626 161.184H96.06V165H94.296ZM107.59 165.216C106.366 165.216 105.322 164.778 104.458 163.902C103.594 163.026 103.162 161.91 103.162 160.554C103.162 159.198 103.594 158.082 104.458 157.206C105.322 156.33 106.366 155.892 107.59 155.892C108.814 155.892 109.858 156.33 110.722 157.206C111.586 158.082 112.018 159.198 112.018 160.554C112.018 161.91 111.586 163.026 110.722 163.902C109.858 164.778 108.814 165.216 107.59 165.216ZM107.59 163.65C108.37 163.65 109.006 163.362 109.498 162.786C109.99 162.198 110.236 161.454 110.236 160.554C110.236 159.666 109.99 158.928 109.498 158.34C109.006 157.752 108.37 157.458 107.59 157.458C106.81 157.458 106.174 157.752 105.682 158.34C105.19 158.928 104.944 159.666 104.944 160.554C104.944 161.454 105.19 162.198 105.682 162.786C106.174 163.362 106.81 163.65 107.59 163.65ZM113.502 165L115.716 156.108H117.102L119.55 162.696H119.586L122.088 156.108H123.474L125.688 165H123.852L122.502 159.24H122.466L120.27 165H118.794L116.616 159.276H116.58L115.248 165H113.502ZM130.91 163.74C131.51 163.74 132.032 163.536 132.476 163.128C132.932 162.708 133.16 162.138 133.16 161.418V160.968C132.896 160.932 132.62 160.902 132.332 160.878C132.044 160.854 131.798 160.842 131.594 160.842C130.826 160.842 130.238 160.98 129.83 161.256C129.422 161.52 129.218 161.88 129.218 162.336C129.218 162.696 129.362 163.02 129.65 163.308C129.938 163.596 130.358 163.74 130.91 163.74ZM130.55 165.216C129.65 165.216 128.906 164.94 128.318 164.388C127.73 163.824 127.436 163.14 127.436 162.336C127.436 161.604 127.736 160.938 128.336 160.338C128.948 159.738 129.95 159.438 131.342 159.438C131.594 159.438 131.882 159.456 132.206 159.492C132.542 159.516 132.86 159.552 133.16 159.6V159.132C133.16 158.58 132.98 158.16 132.62 157.872C132.26 157.584 131.804 157.44 131.252 157.44C130.796 157.44 130.358 157.524 129.938 157.692C129.518 157.86 129.176 158.034 128.912 158.214L127.796 157.098C128.228 156.738 128.744 156.45 129.344 156.234C129.956 156.006 130.604 155.892 131.288 155.892C132.404 155.892 133.286 156.192 133.934 156.792C134.594 157.392 134.924 158.208 134.924 159.24V165H133.196V164.028H133.16C132.896 164.388 132.536 164.676 132.08 164.892C131.624 165.108 131.114 165.216 130.55 165.216ZM137.433 165V156.108H139.197V159.654H143.031V156.108H144.795V165H143.031V161.112H139.197V165H137.433ZM148.858 163.506V163.542H152.584V157.566H149.956C149.92 157.974 149.878 158.472 149.83 159.06C149.782 159.636 149.716 160.242 149.632 160.878C149.572 161.43 149.476 161.928 149.344 162.372C149.212 162.804 149.05 163.182 148.858 163.506ZM146.266 167.052V163.542H146.914C147.214 163.338 147.448 162.984 147.616 162.48C147.784 161.976 147.91 161.37 147.994 160.662C148.174 159.306 148.294 158.208 148.354 157.368C148.414 156.528 148.444 156.108 148.444 156.108H154.348V163.542H155.518V167.052H153.916V165H147.868V167.052H146.266ZM160.054 163.74C160.654 163.74 161.176 163.536 161.62 163.128C162.076 162.708 162.304 162.138 162.304 161.418V160.968C162.04 160.932 161.764 160.902 161.476 160.878C161.188 160.854 160.942 160.842 160.738 160.842C159.97 160.842 159.382 160.98 158.974 161.256C158.566 161.52 158.362 161.88 158.362 162.336C158.362 162.696 158.506 163.02 158.794 163.308C159.082 163.596 159.502 163.74 160.054 163.74ZM159.694 165.216C158.794 165.216 158.05 164.94 157.462 164.388C156.874 163.824 156.58 163.14 156.58 162.336C156.58 161.604 156.88 160.938 157.48 160.338C158.092 159.738 159.094 159.438 160.486 159.438C160.738 159.438 161.026 159.456 161.35 159.492C161.686 159.516 162.004 159.552 162.304 159.6V159.132C162.304 158.58 162.124 158.16 161.764 157.872C161.404 157.584 160.948 157.44 160.396 157.44C159.94 157.44 159.502 157.524 159.082 157.692C158.662 157.86 158.32 158.034 158.056 158.214L156.94 157.098C157.372 156.738 157.888 156.45 158.488 156.234C159.1 156.006 159.748 155.892 160.432 155.892C161.548 155.892 162.43 156.192 163.078 156.792C163.738 157.392 164.068 158.208 164.068 159.24V165H162.34V164.028H162.304C162.04 164.388 161.68 164.676 161.224 164.892C160.768 165.108 160.258 165.216 159.694 165.216Z" fill="black"/>
<path d="M10 54L10 46L80 46L80 54L10 54Z" fill="#0078BF"/>
<circle cx="80" cy="50" r="6" transform="rotate(-90 80 50)" fill="#0078BF"/>
<circle cx="80" cy="50" r="3" transform="rotate(-90 80 50)" fill="white"/>
<path d="M10 92L10 84L80 84L80 92L10 92Z" fill="#19C1F3"/>
<circle cx="80" cy="88" r="6" transform="rotate(-90 80 88)" fill="#19C1F3"/>
<circle cx="80" cy="88" r="3" transform="rotate(-90 80 88)" fill="white"/>
<path d="M10 127L10 119L80 119L80 127L10 127Z" fill="#894E35"/>
<circle cx="80" cy="123" r="6" transform="rotate(-90 80 123)" fill="#894E35"/>
<circle cx="80" cy="123" r="3" transform="rotate(-90 80 123)" fill="white"/>
<path d="M10 164L10 156L80 156L80 164L10 164Z" fill="#44B85C"/>
<circle cx="80" cy="160" r="6" transform="rotate(-90 80 160)" fill="#44B85C"/>
<circle cx="80" cy="160" r="3" transform="rotate(-90 80 160)" fill="white"/>
<defs>
<filter id="filter0_d" x="0.5" y="0" width="278.5" height="207" filterUnits="userSpaceOnUse" color-interpolation-filters="sRGB">
<feFlood flood-opacity="0" result="BackgroundImageFix"/>
<feColorMatrix in="SourceAlpha" type="matrix" values="0 0 0 0 0 0 0 0 0 0 0 0 0 0 0 0 0 0 127 0"/>
<feOffset dy="2"/>
<feGaussianBlur stdDeviation="5"/>
<feColorMatrix type="matrix" values="0 0 0 0 0 0 0 0 0 0 0 0 0 0 0 0 0 0 0.25 0"/>
<feBlend mode="normal" in2="BackgroundImageFix" result="effect1_dropShadow"/>
<feBlend mode="normal" in="SourceGraphic" in2="effect1_dropShadow" result="shape"/>
</filter>
</defs>
</svg>
