<svg width="22" height="125" viewBox="0 0 22 125" fill="none" xmlns="http://www.w3.org/2000/svg">
<path d="M15.243 15.3149C15.1568 18.5854 15.0971 23.1157 15.0585 28.4954C14.9813 39.2481 14.9888 53.3104 15.0333 67.2905C15.0778 81.2677 15.1593 95.1508 15.2295 105.54C15.2647 110.735 15.297 115.056 15.3206 118.078C15.3324 119.589 15.342 120.775 15.3486 121.583L15.3589 122.817L15.359 122.821C15.359 122.821 15.359 122.822 11.3591 122.856L15.359 122.822L15.3591 122.839L15.4059 574.131L7.4059 574.132L7.35928 122.889L7.35911 122.87L7.35912 122.857L7.35858 122.81L7.34892 121.649C7.34228 120.84 7.33266 119.652 7.32087 118.14C7.29728 115.116 7.26488 110.792 7.22973 105.594C7.15938 95.1994 7.0779 81.3061 7.03334 67.316C6.98882 53.3289 6.98115 39.2332 7.05869 28.438C7.0974 23.0438 7.15757 18.4526 7.24579 15.1043C7.28976 13.4347 7.34153 12.0415 7.40339 11L15.243 11.6979V15.3149Z" fill="#8E479C"/>
<circle cx="11" cy="11" r="11" fill="#8E479C"/>
<circle cx="11" cy="11" r="6" fill="white"/>
</svg>
