<svg width="305" height="1059" viewBox="0 0 305 1059" fill="none" xmlns="http://www.w3.org/2000/svg">
<path fill-rule="evenodd" clip-rule="evenodd" d="M8.79055 901.735L6.88858 914.931L252.894 668.927L253.219 668.653C253.517 668.402 253.953 668.033 254.508 667.562C255.619 666.619 257.208 665.265 259.123 663.617C262.951 660.322 268.091 655.844 273.329 651.123C278.557 646.409 283.923 641.416 288.185 637.099C290.312 634.944 292.209 632.913 293.689 631.14C295.065 629.493 296.418 627.683 297.048 626.048C297.293 625.412 297.367 624.717 297.393 624.478L297.396 624.448C297.439 624.053 297.474 623.581 297.504 623.064C297.564 622.022 297.614 620.629 297.655 618.96C297.738 615.611 297.791 611.02 297.822 605.626C297.883 594.83 297.854 580.735 297.788 566.748C297.722 552.758 297.62 538.865 297.533 528.47C297.49 523.272 297.451 518.949 297.423 515.924C297.409 514.412 297.398 513.225 297.39 512.416L297.378 511.255L297.378 511.217L297.378 511.194L297.378 511.179L297.378 511.176L297.427 9H289.427L289.378 511.234L289.378 511.255L293.378 511.215C289.378 511.255 289.378 511.256 289.378 511.256L289.378 511.26L289.39 512.493C289.398 513.302 289.409 514.488 289.424 515.999C289.452 519.021 289.491 523.342 289.534 528.536C289.62 538.926 289.722 552.808 289.788 566.785C289.854 580.765 289.883 594.828 289.822 605.58C289.792 610.96 289.739 615.491 289.658 618.761C289.617 620.401 289.57 621.692 289.517 622.602C289.497 622.951 289.477 623.219 289.459 623.417C289.456 623.422 289.453 623.428 289.45 623.434C289.357 623.599 289.225 623.81 289.046 624.072C288.686 624.598 288.189 625.246 287.55 626.012C286.27 627.544 284.545 629.399 282.491 631.479C278.391 635.633 273.158 640.505 267.972 645.181C262.795 649.848 257.704 654.283 253.904 657.553C252.005 659.188 250.43 660.53 249.332 661.462C248.953 661.784 248.63 662.057 248.37 662.276C248.254 662.375 248.15 662.462 248.06 662.539C247.961 662.622 247.683 662.856 247.617 662.912L247.616 662.913C247.616 662.913 248.419 664.039 250.992 667.102L247.616 662.913L247.482 663.025L8.79055 901.735ZM289.42 623.758C289.42 623.758 289.423 623.74 289.429 623.703C289.422 623.739 289.42 623.758 289.42 623.758Z" fill="#19C1F3"/>
<path fill-rule="evenodd" clip-rule="evenodd" d="M8.51881 913.918C8.51881 913.918 8.515 913.936 8.5098 913.973C8.51674 913.937 8.51881 913.918 8.51881 913.918Z" fill="#19C1F3"/>
<path fill-rule="evenodd" clip-rule="evenodd" d="M8.51881 913.918C8.51881 913.918 8.515 913.936 8.5098 913.973C8.51674 913.937 8.51881 913.918 8.51881 913.918Z" fill="#19C1F3"/>
<path fill-rule="evenodd" clip-rule="evenodd" d="M10.1162 911.99C11.2032 910.689 12.6596 909.149 14.3976 907.442L8.79055 901.735C6.95616 903.538 5.29715 905.28 3.97715 906.86C2.73216 908.35 1.51593 910.011 0.895409 911.61C0.649191 912.245 0.573425 912.94 0.547385 913.179L0.544066 913.21C0.500295 913.604 0.464336 914.077 0.433273 914.593C0.370614 915.635 0.317784 917.028 0.272531 918.697C0.181748 922.045 0.118058 926.637 0.0752018 932.031C-0.0106294 942.826 -0.0137644 956.922 0.0200187 970.909C0.0538365 984.899 0.124634 998.792 0.187001 1009.19C0.218162 1014.39 0.247265 1018.71 0.268531 1021.73C0.279163 1023.25 0.287861 1024.43 0.293879 1025.24L0.290036 1059H4.19445C8.19433 1058.97 8.30007 1059 8.30007 1059L8.303 1026.42L8.29365 1025.18C8.28763 1024.37 8.27896 1023.19 8.26833 1021.68C8.24707 1018.65 8.21802 1014.33 8.18686 1009.14C8.12456 998.75 8.05377 984.867 8.02001 970.889C7.98621 956.909 7.9895 942.847 8.07497 932.094C8.11772 926.715 8.1809 922.184 8.26956 918.914C8.31402 917.274 8.36406 915.984 8.41881 915.073C8.44039 914.715 8.46126 914.441 8.47999 914.242C8.70522 913.829 9.19887 913.088 10.1162 911.99ZM8.51881 913.918C8.51881 913.918 8.515 913.936 8.5098 913.973C8.51674 913.937 8.51881 913.918 8.51881 913.918Z" fill="#19C1F3"/>
<circle cx="293.492" cy="11" r="11" fill="#19C1F3"/>
<circle cx="293.492" cy="11" r="6" fill="white"/>
</svg>
